<svg width="70" height="56" viewBox="0 0 70 56" fill="none" xmlns="http://www.w3.org/2000/svg">
<path d="M61.2326 55.1764V17.8705C61.2326 16.8823 61.2326 15.7568 61.2326 14.4941C61.2877 13.1764 61.3429 11.8862 61.398 10.6235C59.6886 12.5451 57.7311 14.1647 55.5254 15.4823C53.3749 16.7451 51.1141 17.6784 48.7431 18.2823L47.4197 10.5411C48.5225 10.3764 49.7908 9.99211 51.2244 9.38819C52.6581 8.72937 54.1193 7.93329 55.6082 6.99996C57.1521 6.06662 58.5307 5.07838 59.7438 4.03525C61.012 2.93721 61.977 1.86662 62.6387 0.823486H70V55.1764H61.2326Z" fill="white"/>
<path d="M20.5126 56C14.0059 56 8.96046 53.6118 5.37628 48.8353C1.79209 44.0588 0 37.1137 0 28C0 18.8863 1.79209 11.9412 5.37628 7.16471C8.96046 2.38824 14.0059 0 20.5126 0C26.9641 0 31.982 2.38824 35.5661 7.16471C39.2055 11.9412 41.0251 18.8863 41.0251 28C41.0251 37.1137 39.2055 44.0588 35.5661 48.8353C31.982 53.6118 26.9641 56 20.5126 56ZM20.5126 48.5882C24.2622 48.5882 27.1019 46.8863 29.0319 43.4824C30.9618 40.0784 31.9268 34.9176 31.9268 28C31.9268 21.0824 30.9618 15.9216 29.0319 12.5176C27.1019 9.11373 24.2622 7.41176 20.5126 7.41176C16.7078 7.41176 13.8405 9.11373 11.9105 12.5176C10.0357 15.9216 9.09832 21.0824 9.09832 28C9.09832 34.9176 10.0357 40.0784 11.9105 43.4824C13.8405 46.8863 16.7078 48.5882 20.5126 48.5882Z" fill="white"/>
</svg>
