<svg width="88" height="56" viewBox="0 0 88 56" fill="none" xmlns="http://www.w3.org/2000/svg">
<path d="M51.1792 55.1765V48.7529C56.0667 45.1843 60.2128 41.9725 63.6176 39.1176C67.0223 36.2078 69.7681 33.5451 71.8549 31.1294C73.9417 28.7137 75.4793 26.4078 76.4678 24.2118C77.4563 21.9608 77.9505 19.7098 77.9505 17.4588C77.9505 14.549 77.0719 12.1882 75.3146 10.3765C73.6122 8.50981 71.2234 7.57647 68.1481 7.57647C64.963 7.57647 62.4094 8.72941 60.4874 11.0353C58.6203 13.2863 57.5494 16.4157 57.2748 20.4235L49.5317 17.0471C49.8612 13.5333 50.8223 10.5137 52.4148 7.98823C54.0623 5.40784 56.2589 3.43137 59.0047 2.05882C61.8054 0.686274 65.0179 0 68.6423 0C72.5962 0 75.9461 0.768627 78.6919 2.30588C81.4376 3.84314 83.497 5.90196 84.8699 8.48235C86.2977 11.0627 87.0116 13.9451 87.0116 17.1294C87.0116 20.5882 86.1604 23.9373 84.458 27.1765C82.7556 30.4157 80.1197 33.7098 76.5502 37.0588C72.9807 40.4078 68.3678 44.0039 62.7115 47.8471V47.9294C63.4254 47.8745 64.304 47.8471 65.3474 47.8471C66.3908 47.7922 67.4616 47.7647 68.56 47.7647C69.6583 47.7098 70.5644 47.6824 71.2783 47.6824H88V55.1765H51.1792Z" fill="white"/>
<path d="M20.4286 56C13.9485 56 8.92377 53.6118 5.35426 48.8353C1.78475 44.0588 0 37.1137 0 28C0 18.8863 1.78475 11.9412 5.35426 7.16471C8.92377 2.38824 13.9485 0 20.4286 0C26.8537 0 31.851 2.38824 35.4205 7.16471C39.0449 11.9412 40.8571 18.8863 40.8571 28C40.8571 37.1137 39.0449 44.0588 35.4205 48.8353C31.851 53.6118 26.8537 56 20.4286 56ZM20.4286 48.5882C24.1628 48.5882 26.991 46.8863 28.913 43.4824C30.8351 40.0784 31.7961 34.9176 31.7961 28C31.7961 21.0824 30.8351 15.9216 28.913 12.5176C26.991 9.11373 24.1628 7.41176 20.4286 7.41176C16.6394 7.41176 13.7838 9.11373 11.8617 12.5176C9.99462 15.9216 9.06106 21.0824 9.06106 28C9.06106 34.9176 9.99462 40.0784 11.8617 43.4824C13.7838 46.8863 16.6394 48.5882 20.4286 48.5882Z" fill="white"/>
</svg>
