<svg width="86" height="56" viewBox="0 0 86 56" fill="none" xmlns="http://www.w3.org/2000/svg">
<path d="M67.3969 56C62.4032 56 58.0954 54.8762 54.4735 52.6285C50.8517 50.326 48.3548 47.1189 46.9829 43.0073L55.5436 39.0602C56.2021 42.0754 57.4917 44.4053 59.4124 46.0499C61.388 47.6946 64.0769 48.5169 67.4793 48.5169C70.4975 48.5169 72.8297 47.6672 74.476 45.9677C76.1772 44.2682 77.0278 42.048 77.0278 39.3069C77.0278 37.4978 76.6711 36.0176 75.9577 34.8664C75.2991 33.6603 74.2839 32.7832 72.912 32.2349C71.595 31.6319 69.8938 31.3304 67.8085 31.3304C67.2049 31.3304 66.5464 31.3578 65.833 31.4126C65.1744 31.4126 64.4885 31.4675 63.7751 31.5771V24.4229C64.269 24.4777 64.7354 24.5051 65.1744 24.5051C65.6683 24.5051 66.1348 24.5051 66.5738 24.5051C69.8664 24.5051 72.2535 23.7925 73.7352 22.3671C75.2168 20.9418 75.9577 18.7215 75.9577 15.7063C75.9577 13.0749 75.1894 11.0739 73.6528 9.70338C72.1163 8.27802 70.0036 7.56534 67.3146 7.56534C64.5159 7.56534 62.266 8.27802 60.5648 9.70338C58.9185 11.1287 57.7112 13.1571 56.943 15.7885L48.8761 12.4993C49.6444 9.97748 50.9066 7.78463 52.6626 5.9207C54.4187 4.05678 56.5863 2.60401 59.1655 1.56241C61.7447 0.520803 64.5982 0 67.7262 0C71.5127 0 74.6681 0.630446 77.1924 1.89134C79.7167 3.15223 81.6099 4.8791 82.8721 7.07195C84.1891 9.20998 84.8476 11.6769 84.8476 14.4728C84.8476 16.556 84.5458 18.3926 83.9422 19.9824C83.3385 21.5174 82.5428 22.8331 81.5551 23.9295C80.5673 25.0259 79.4972 25.8757 78.3448 26.4787C77.1924 27.0817 76.0674 27.4929 74.9699 27.7122V27.8767C76.3967 27.9315 77.7411 28.233 79.0033 28.7812C80.3203 29.3294 81.5002 30.1243 82.5428 31.1659C83.5855 32.1527 84.4086 33.3588 85.0123 34.7841C85.6708 36.2095 86 37.8541 86 39.7181C86 42.9525 85.1769 45.8032 83.5306 48.2702C81.9392 50.6823 79.7441 52.5737 76.9454 53.9442C74.2016 55.3147 71.0188 56 67.3969 56Z" fill="white"/>
<path d="M20.414 56C13.9386 56 8.91742 53.6153 5.35045 48.8459C1.78348 44.0764 0 37.1415 0 28.0412C0 18.9408 1.78348 12.0059 5.35045 7.23646C8.91742 2.46701 13.9386 0.0822754 20.414 0.0822754C26.8346 0.0822754 31.8283 2.46701 35.3953 7.23646C39.0171 12.0059 40.8281 18.9408 40.8281 28.0412C40.8281 37.1415 39.0171 44.0764 35.3953 48.8459C31.8283 53.6153 26.8346 56 20.414 56ZM20.414 48.5992C24.1456 48.5992 26.9718 46.8997 28.8924 43.5008C30.8131 40.1019 31.7734 34.9486 31.7734 28.0412C31.7734 21.1337 30.8131 15.9805 28.8924 12.5815C26.9718 9.18262 24.1456 7.48315 20.414 7.48315C16.6276 7.48315 13.774 9.18262 11.8533 12.5815C9.98751 15.9805 9.05461 21.1337 9.05461 28.0412C9.05461 34.9486 9.98751 40.1019 11.8533 43.5008C13.774 46.8997 16.6276 48.5992 20.414 48.5992Z" fill="white"/>
</svg>
