<svg width="600" height="600" viewBox="0 0 600 600" fill="none" xmlns="http://www.w3.org/2000/svg">
<path d="M442.453 251.318L470.539 291.327L314.149 398.913L235.955 332.678L219.201 318.468L205.95 331.337L0 531.475L216.581 378.482L289.323 462.831L305.559 481.646L330.873 466.307L507.367 343.779L533.411 380.891L600 237.29L442.453 251.318Z" fill="url(#paint0_linear_123_14257)"/>
<mask id="mask0_123_14257" style="mask-type:luminance" maskUnits="userSpaceOnUse" x="33" y="68" width="471" height="369">
<path d="M204.331 303.156L218.221 289.678L232.965 302.181L249.718 316.361L315.454 372.075L440.651 285.957L425.116 263.574L403.793 233.323L440.59 230.06L503.128 224.571C491.12 193.054 472.696 164.381 449.027 140.374C425.357 116.367 396.958 97.5508 365.635 85.1201C334.312 72.6895 300.748 66.9163 267.077 68.1674C233.406 69.4184 200.362 77.6663 170.045 92.3871C139.729 107.108 112.802 127.98 90.9743 153.677C69.1472 179.375 52.8971 209.335 43.2563 241.657C33.6156 273.978 30.7949 307.954 34.9734 341.425C39.1518 374.896 50.2382 407.132 67.5282 436.084L191.08 316.056L204.331 303.156Z" fill="white"/>
</mask>
<g mask="url(#mask0_123_14257)">
<path d="M136.943 111.378C229.021 46.9174 355.755 53.7521 440.484 131.881C438.762 131.105 437.183 130.79 435.785 131.017C414.462 134.067 427.469 156.145 443.095 152.364C444.832 154.895 444.558 159.317 445.198 162.427C429.967 160.506 422.9 163.403 414.523 175.327C387.748 176.943 415.223 192.526 401.212 196.429C376.172 186.366 368.526 220.338 393.474 220.826C415.893 220.582 403.405 200.425 437.004 193.563C435.055 201.797 469.597 212.195 449.371 214.36C445.715 226.558 471.668 215.031 456.377 202.468C453.235 201.804 450.426 200.058 448.438 197.534C446.451 195.009 445.412 191.866 445.503 188.653C461.159 185.97 467.586 200.577 471.12 212.866C477.974 222.014 479.527 213.446 481.842 206.767C484.005 202.529 490.128 202.986 489.123 208.444C510.795 238.242 491.5 196.202 469.195 163.357C487.57 187.405 500.857 214.099 509.058 241.973C509.054 241.958 509.049 241.943 509.045 241.928C495.855 247.539 480.959 225.278 470.846 236.378C466.947 247.6 459.727 236.164 452.569 236.652C424.271 234.212 458.021 206.157 404.805 225.643C367.186 221.039 383.482 241.531 361.093 256.535C330.632 270.197 365.144 274.344 348.208 285.841C344.857 304.321 362.8 332.864 381.929 331.308C403.861 324.356 418.087 327.558 438.678 332.864C433.987 349.545 440.415 363.359 450.01 376.259C460.367 389.524 439.075 398.886 446.965 412.151C452.112 414.896 453.514 419.287 453.3 424.959C450.894 439.566 464.357 450.27 464.144 464.785C464.884 463.914 465.617 463.036 466.343 462.151C460.629 469.341 454.451 476.283 447.806 482.935C352.912 577.933 199.059 577.933 104.165 482.935C27.6082 406.295 12.8142 291.237 59.7829 199.749C54.0188 215.863 53.4543 232.507 61.2302 248.972C61.6871 257.816 72.1054 270.898 78.8678 268.581C79.7208 257.816 67.2618 251.473 68.9372 240.159C66.7443 233.389 75.4255 234.579 74.6335 240.769C75.3646 250.253 82.1877 256.687 86.0563 264.738C93.4889 273.551 83.5286 288.646 103.207 290.933C109.512 296.544 124.864 287.671 124.834 295.447C127.575 302.766 139.121 299.899 144.33 304.595C155.509 327.527 172.567 314.384 176.009 325.301C183.137 340.549 160.992 340.823 164.739 355.491C158.982 368.36 167.571 377.113 176.375 385.499C182.01 400.136 190.752 400.929 202.023 410.383C209.912 421.666 203.12 440.328 205.313 454.173C215.792 459.906 200.958 476.221 213.568 485.186C217.162 489.09 215.67 495.89 213.568 501.318C214.817 513.821 224.718 525.44 232.759 533.643C237.177 541.145 265.048 542.792 250.731 531.905C239.491 526.324 253.351 513.272 242.659 509.887C237.206 508.241 236.293 504.856 240.862 500.556C247.32 495.159 235.653 494.945 237.816 489.974C239.522 486.925 242.994 488.388 245.736 488.022C258.591 483.722 267.059 473.171 273.578 460.577C278.908 456.582 283.051 452.465 280.644 444.475C270.379 419.867 307.785 436.181 307.816 413.737C303.46 393.519 329.657 371.684 319.087 368.177C299.926 348.203 296.149 360.371 272.907 350.978C262.307 347.928 270.775 328.534 258.378 326.582C240.466 332.833 241.928 306.608 227.916 310.756C221.336 314.689 215.214 315.055 209.335 308.407C189.291 292.489 188.742 324.02 161.936 314.994C156.819 302.003 165.561 289.652 145.578 288.829C144.573 283.98 153.68 279.192 148.898 274.283C139.577 274.283 132.175 288.615 119.839 284.133C102.293 264.799 132.022 239.367 152.858 243.88C169.642 241.349 163.642 247.783 173.451 256.596C183.046 254.949 169.735 236.653 192.549 230.645C199.891 227.291 198.49 216.831 205.435 214.391C213.629 200.181 231.693 195.362 241.319 181.884C244.365 181.457 247.411 184.933 250.671 181.884C239.187 177.431 243.36 166.636 253.716 172.735C259.809 179.871 265.384 172.338 271.994 172.277C273.943 176.394 266.114 179.627 270.166 183.073C274.339 185.055 283.172 190.544 286.036 185.39C285.061 181.518 281.954 180.175 278.725 178.742C268.552 173.71 286.157 172.369 283.417 165.051C263.769 147.363 283.416 138.886 263.89 147.058C247.594 153.797 269.282 129.432 236.475 135.226C228.495 141.325 238.668 155.719 226.179 157.701C216.736 157.457 219.264 171.454 210.705 170.386C207.659 169.075 208.755 166.239 208.999 163.8C209.821 153.95 198.672 158.158 193.189 153.798C173.481 136.964 222.585 124.949 233.247 128.608C233.612 126.443 229.683 123.181 233.247 122.876C241.624 120.802 247.167 111.379 257.341 113.727C274.217 115.862 264.226 122.876 255.21 126.596C248.63 131.293 271.11 135.287 275.009 132.695C275.405 127.115 279.365 126.596 284.147 126.931C288.93 127.267 292.159 119.003 285.671 118.668C283.081 117.844 283.417 115.435 283.386 113.178C275.558 99.8216 248.386 94.119 236.323 106.195C235.196 110.251 239.369 118.667 229.591 117.02C219.204 111.653 230.566 105.982 231.998 101.194C225.906 101.651 218.991 100.278 213.507 101.712C208.817 109.976 215.182 105.494 216.553 110.189C216.553 113.238 213.295 114.885 210.919 115.556C202.694 117.142 183.991 126.901 187.981 110.83C195.596 111.836 205.465 108.909 206.257 100.828C200.744 98.0833 199.921 104.335 196.509 105.829C183.35 109.762 182.01 92.3497 168.515 96.3445C165.72 96.6757 163.037 97.6387 160.668 99.1599C158.298 100.681 156.305 102.722 154.839 105.128C157.458 108.177 163.336 105.128 164.708 108.176C164.982 109.976 162.789 115.282 165.287 114.276C168.942 112.202 182.772 115.283 175.552 119.765C162.556 123.217 150.045 106.376 136.943 111.378ZM518.966 308.886C519.261 344.34 511.863 379.844 496.769 412.676C511.227 380.609 519.002 344.597 518.966 308.886ZM241.865 191.365C241.525 191.395 241.196 191.501 240.903 191.676C240.609 191.85 240.358 192.088 240.169 192.372C239.979 192.656 239.855 192.978 239.806 193.316C239.758 193.654 239.786 193.999 239.887 194.325V194.417C239.887 197.283 244.731 196.886 244.335 193.928C244.377 193.59 244.344 193.246 244.236 192.922C244.128 192.597 243.949 192.301 243.713 192.055C243.476 191.81 243.187 191.62 242.867 191.501C242.547 191.381 242.205 191.335 241.865 191.365ZM259.23 190.269C266.967 190.849 257.829 183.073 257.129 189.965V190.056C241.228 189.05 258.834 201.888 259.23 190.269ZM412.908 165.508C403.343 160.78 402.308 132.909 391.89 152.852C415.985 164.166 379.706 172.735 404.775 174.077C409.618 175.053 420.889 168.649 412.908 165.508ZM388.691 156.237C385.158 158.036 381.533 159.683 379.979 163.861C372.547 182.432 408.582 159.683 388.691 156.237ZM129.764 116.601C122.03 122.82 114.014 129.615 106.235 136.868C113.74 129.529 121.602 122.773 129.764 116.601Z" fill="url(#paint1_linear_123_14257)"/>
</g>
<defs>
<linearGradient id="paint0_linear_123_14257" x1="300" y1="237.29" x2="380.145" y2="517.412" gradientUnits="userSpaceOnUse">
<stop stop-color="#EDB326"/>
<stop offset="1" stop-color="#F4B741"/>
</linearGradient>
<linearGradient id="paint1_linear_123_14257" x1="275.985" y1="67.667" x2="494.269" y2="441.333" gradientUnits="userSpaceOnUse">
<stop stop-color="#EDB326"/>
<stop offset="1" stop-color="#F4B741"/>
</linearGradient>
</defs>
</svg>
