<svg width="480" height="83" viewBox="0 0 480 83" fill="none" xmlns="http://www.w3.org/2000/svg">
<path d="M78.9529 32.8285L83.9646 39.9935L56.0579 59.2604L42.1046 47.3988L39.115 44.8539L36.7505 47.1585L0 83L38.6475 55.6014L51.6279 70.7069L54.5251 74.0765L59.0421 71.3295L90.5363 49.3867L95.1838 56.0329L107.066 30.3164L78.9529 32.8285Z" fill="url(#paint0_linear_174_650)"/>
<mask id="mask0_174_650" style="mask-type:luminance" maskUnits="userSpaceOnUse" x="5" y="0" width="85" height="66">
<path d="M36.4615 42.1125L38.9402 39.6987L41.571 41.9377L44.5606 44.4772L56.2908 54.4547L78.6314 39.0324L75.8592 35.0239L72.0542 29.6065L78.6205 29.0222L89.7799 28.0392C87.6372 22.395 84.3496 17.2602 80.1259 12.961C75.9022 8.66173 70.8346 5.29204 65.2452 3.06592C59.6558 0.839808 53.6666 -0.194066 47.6582 0.0299733C41.6497 0.254013 35.7533 1.73107 30.3435 4.36731C24.9337 7.00356 20.1287 10.7414 16.2338 15.3433C12.3389 19.9453 9.43914 25.3108 7.71881 31.099C5.99847 36.8872 5.49513 42.9716 6.24076 48.9658C6.98638 54.9599 8.96467 60.7327 12.05 65.9176L34.097 44.4226L36.4615 42.1125Z" fill="white"/>
</mask>
<g mask="url(#mask0_174_650)">
<path d="M24.4409 7.76463C40.8674 -3.77227 63.4708 -2.54745 78.5884 11.4336C78.2859 11.2987 78.0084 11.244 77.7622 11.2842C73.9572 11.8303 76.2784 15.7846 79.0669 15.1074C79.3765 15.5607 79.3278 16.3522 79.4419 16.9092C76.7241 16.5651 75.463 17.0844 73.9682 19.2197C69.1903 19.5091 74.0927 22.3 71.5923 22.999C67.1243 21.1969 65.7601 27.2794 70.2114 27.3672C74.212 27.3235 71.9839 23.7142 77.979 22.4853C77.6316 23.9598 83.7952 25.8222 80.186 26.2099C79.5342 28.394 84.1646 26.33 81.436 24.0801C80.8756 23.9613 80.3746 23.6483 80.02 23.1963C79.6655 22.7443 79.4796 22.1817 79.4956 21.6064C82.2895 21.1258 83.4363 23.7415 84.0669 25.9424C85.2899 27.5807 85.5678 26.0456 85.9809 24.8496C86.3671 24.0909 87.4591 24.173 87.2798 25.1504C91.1416 30.4791 87.7118 22.9798 83.7388 17.1015C87.0065 21.3993 89.3723 26.1669 90.8335 31.1465C88.4801 32.1498 85.8224 28.1648 84.0181 30.1523C83.3223 32.1618 82.0346 30.1151 80.7573 30.2021C75.7076 29.7652 81.73 24.7408 72.2339 28.2304C65.5209 27.4058 68.429 31.0758 64.4341 33.7627C58.9984 36.2093 65.1565 36.9519 62.1343 39.0107C61.5364 42.3202 64.7383 47.4318 68.1518 47.1533C72.0655 45.9082 74.6043 46.4814 78.2788 47.4316C77.4417 50.4189 78.588 52.893 80.3003 55.2031C82.1482 57.5786 78.3486 59.2553 79.7563 61.6308C80.675 62.1223 80.9252 62.909 80.8872 63.9248C80.4582 66.5404 82.8608 68.4573 82.8227 71.0566C82.9308 70.929 83.0366 70.7992 83.1431 70.6699C82.1425 71.9268 81.0659 73.1439 79.9067 74.3086C62.9735 91.321 35.5196 91.3211 18.5864 74.3086C4.93004 60.5881 2.28952 39.9935 10.6606 23.6123C9.63841 26.4922 9.54077 29.466 10.9253 32.4082C11.0069 33.9919 12.866 36.3349 14.0727 35.9199C14.2249 33.9922 12.0015 32.856 12.3003 30.8301C11.9089 29.6177 13.4582 29.8308 13.3169 30.9394C13.4475 32.6376 14.6647 33.7899 15.355 35.2314C16.6813 36.8097 14.9041 39.5132 18.4155 39.9228C19.5407 40.9273 22.2797 39.3387 22.2749 40.7304C22.7641 42.0411 24.8238 41.5283 25.7534 42.3691C27.7482 46.4758 30.7924 44.1223 31.4067 46.0771C32.6786 48.8075 28.7271 48.8571 29.395 51.4834C28.3677 53.788 29.9012 55.3556 31.4722 56.8574C32.4777 59.4786 34.0373 59.6208 36.0483 61.3135C37.4562 63.3341 36.2439 66.6769 36.6352 69.1562C38.5051 70.1829 35.8585 73.1044 38.1089 74.7099C38.7502 75.4089 38.4839 76.6266 38.1089 77.5986C38.3317 79.8377 40.0987 81.9186 41.5337 83.3877C42.322 84.731 47.2952 85.0257 44.7407 83.0761C42.7351 82.0768 45.2074 79.7402 43.3003 79.1338C42.3274 78.8389 42.164 78.2328 42.979 77.4629C44.1314 76.4962 42.0501 76.4575 42.436 75.5674C42.7405 75.0216 43.36 75.2833 43.8491 75.2178C46.1428 74.4477 47.6537 72.5581 48.8169 70.3027C49.768 69.5874 50.5077 68.8503 50.0786 67.4199C48.2468 63.0129 54.9204 65.9338 54.9263 61.915C54.149 58.2943 58.8239 54.384 56.938 53.7558C53.519 50.1789 52.8449 52.3576 48.6977 50.6758C46.8062 50.1297 48.3168 46.6564 46.105 46.3066C42.9089 47.4261 43.1695 42.7304 40.6694 43.4726C39.4953 44.1771 38.4021 44.2423 37.353 43.0517C33.7765 40.2014 33.6783 45.8479 28.895 44.2314C27.9819 41.905 29.5418 39.6933 25.9761 39.5459C25.7967 38.6776 27.4222 37.8196 26.5688 36.9404C24.9056 36.9405 23.5846 39.5077 21.3833 38.7051C18.2523 35.2427 23.5579 30.6878 27.2759 31.4961C30.2704 31.043 29.1997 32.1953 30.9497 33.7734C32.6619 33.4785 30.287 30.2019 34.3579 29.126C35.6679 28.5252 35.4184 26.6517 36.6577 26.2148C38.12 23.6702 41.3434 22.8072 43.061 20.3935C43.6044 20.3174 44.1476 20.9392 44.729 20.3935C42.6803 19.5961 43.4251 17.663 45.2729 18.7549C46.3601 20.0328 47.3551 18.6847 48.5347 18.6738C48.8817 19.4108 47.4857 19.9894 48.2085 20.6064C48.9532 20.9614 50.5296 21.9443 51.0405 21.0215C50.8665 20.328 50.3119 20.0877 49.7358 19.831C47.9203 18.9299 51.062 18.6896 50.5727 17.3789C47.0669 14.2115 50.5726 12.6936 47.0884 14.1572C44.1807 15.3638 48.0503 11.0007 42.1968 12.0381C40.7726 13.1303 42.5875 15.7075 40.3589 16.0625C38.6743 16.0191 39.1251 18.5257 37.5981 18.3349C37.0546 18.1001 37.2499 17.5921 37.2934 17.1553C37.4402 15.3913 35.4506 16.1451 34.4722 15.3642C30.9553 12.3497 39.7181 10.1982 41.6206 10.8535C41.6858 10.4658 40.9846 9.88076 41.6206 9.82615C43.1151 9.45462 44.1043 7.76823 45.9194 8.18845C48.9306 8.57071 47.1484 9.82587 45.5395 10.4922C44.3654 11.3332 48.377 12.0491 49.0727 11.5849C49.1434 10.5856 49.8502 10.4926 50.7036 10.5527C51.5568 10.6123 52.1326 9.13236 50.9751 9.07224C50.5132 8.92479 50.5723 8.4939 50.5669 8.08982C49.1699 5.698 44.322 4.67657 42.1694 6.83885C41.9683 7.56515 42.7128 9.07206 40.9682 8.77732C39.1147 7.81616 41.1415 6.80073 41.397 5.94334C40.31 6.02516 39.0764 5.77958 38.0981 6.03611C37.261 7.51608 38.3965 6.71365 38.6411 7.55467C38.641 8.10054 38.0601 8.39541 37.6362 8.5156C36.1686 8.79958 32.8304 10.5469 33.5425 7.66892C34.9014 7.84914 36.6629 7.32511 36.8042 5.87791C35.8205 5.38651 35.6736 6.50571 35.0649 6.77342C32.7168 7.47787 32.4775 4.36014 30.0698 5.07517C29.5712 5.13446 29.0921 5.30678 28.6694 5.57908C28.2466 5.85154 27.8901 6.21765 27.6284 6.64842C28.0959 7.19445 29.1455 6.64822 29.3901 7.19431C29.4388 7.51676 29.048 8.46628 29.4936 8.28611C30.1465 7.91516 32.6127 8.46687 31.3247 9.26951C29.0077 9.88668 26.7767 6.87599 24.4409 7.76463ZM92.604 43.2842C92.6353 49.5308 91.3371 55.7815 88.7104 61.5742C91.2278 55.9133 92.5893 49.5756 92.604 43.2842ZM43.1577 22.0918C43.0973 22.0972 43.039 22.1164 42.9868 22.1474C42.9346 22.1785 42.8898 22.2208 42.8559 22.2715C42.8221 22.3223 42.7992 22.3808 42.7905 22.4414C42.7819 22.5018 42.787 22.5638 42.8052 22.622V22.6377C42.8052 23.151 43.6697 23.0805 43.5991 22.5508C43.6067 22.4901 43.6007 22.4281 43.5815 22.3701C43.5623 22.3122 43.5299 22.2597 43.4878 22.2158C43.4456 22.1719 43.3942 22.1376 43.3374 22.1162C43.2803 22.0948 43.2183 22.0863 43.1577 22.0918ZM46.2573 21.8955C47.6371 21.9989 46.0063 20.6067 45.8813 21.8408V21.8574C43.0447 21.6774 46.1866 23.976 46.2573 21.8955ZM73.6802 17.4609C71.9734 16.6145 71.788 11.6233 69.9292 15.1943C74.2287 17.2203 67.7552 18.7557 72.228 18.9961C73.0922 19.1708 75.1037 18.0235 73.6802 17.4609ZM69.3589 15.8008C68.7284 16.1229 68.0815 16.418 67.8042 17.166C66.4779 20.4917 72.9073 16.4181 69.3589 15.8008ZM23.0727 8.77049C21.7638 9.82901 20.4104 10.9782 19.0932 12.2031C20.3658 10.9649 21.6951 9.82108 23.0727 8.77049Z" fill="url(#paint1_linear_174_650)"/>
</g>
<path d="M479.999 51.9408H473.758L468.576 43.0958L463.469 51.9408H457.455L465.777 39.2616L458.022 26.8862H464.226L468.992 35.3137L473.796 26.8862H479.545L471.753 39.1098L479.999 51.9408Z" fill="url(#paint2_linear_174_650)"/>
<path d="M453.154 31.0999H440.18V37.4775H450.468V41.7291H440.18V51.9408H434.922V26.8862H453.154V31.0999Z" fill="url(#paint3_linear_174_650)"/>
<path d="M396.579 51.9408V32.9601H401.231L401.421 36.4905C402.026 35.1998 402.883 34.2254 403.993 33.5674C405.102 32.9094 406.325 32.5804 407.662 32.5804C409.024 32.5804 410.247 32.8968 411.331 33.5295C412.441 34.1622 413.247 35.1239 413.752 36.4145C414.13 35.5541 414.647 34.8455 415.303 34.2887C415.984 33.7066 416.74 33.2764 417.572 32.998C418.43 32.7196 419.287 32.5804 420.144 32.5804C421.38 32.5804 422.49 32.8335 423.473 33.3397C424.457 33.8458 425.251 34.6051 425.856 35.6174C426.461 36.6297 426.764 37.9077 426.764 39.4515V51.9408H421.544V40.5144C421.544 39.1478 421.241 38.1734 420.636 37.5914C420.031 36.984 419.262 36.6803 418.329 36.6803C417.572 36.6803 416.891 36.8701 416.286 37.2497C415.681 37.6293 415.189 38.1987 414.811 38.958C414.458 39.6919 414.281 40.5903 414.281 41.6532V51.9408H409.061V40.5144C409.061 39.1478 408.759 38.1734 408.154 37.5914C407.548 36.984 406.792 36.6803 405.884 36.6803C405.203 36.6803 404.548 36.8574 403.917 37.2117C403.287 37.566 402.77 38.1228 402.366 38.882C401.988 39.6413 401.799 40.6283 401.799 41.843V51.9408H396.579Z" fill="url(#paint4_linear_174_650)"/>
<path d="M383.315 39.7931C383.315 38.7302 383.025 37.895 382.445 37.2877C381.89 36.655 381.121 36.3386 380.137 36.3386C379.179 36.3386 378.36 36.579 377.679 37.0599C376.998 37.5407 376.506 38.3506 376.204 39.4894L371.816 38.1608C372.219 36.4652 373.14 35.1112 374.577 34.0989C376.014 33.0866 377.956 32.5804 380.402 32.5804C382.067 32.5804 383.504 32.8462 384.714 33.3776C385.925 33.8838 386.858 34.6557 387.513 35.6933C388.194 36.7309 388.535 38.0216 388.535 39.5653V47.2715C388.535 48.2585 388.976 48.752 389.859 48.752C390.06 48.752 390.262 48.7393 390.464 48.714C390.691 48.6887 390.88 48.6508 391.031 48.6002L390.729 51.7889C390.426 51.9408 390.073 52.0546 389.67 52.1306C389.266 52.2065 388.8 52.2445 388.27 52.2445C387.413 52.2445 386.631 52.1053 385.925 51.8269C385.244 51.5232 384.702 51.0677 384.298 50.4603C383.92 49.8276 383.731 49.0304 383.731 48.0687V47.765L384.45 47.6132C384.349 48.6508 383.97 49.5239 383.315 50.2325C382.659 50.9411 381.852 51.4726 380.894 51.8269C379.936 52.1559 378.927 52.3204 377.868 52.3204C376.052 52.3204 374.564 51.8775 373.404 50.9917C372.27 50.106 371.702 48.8153 371.702 47.1197C371.702 45.7784 372.118 44.6522 372.951 43.7411C373.783 42.83 375.056 42.1973 376.771 41.843L383.882 40.3246V43.3994L379.532 44.3105C378.675 44.4877 378.019 44.7534 377.565 45.1077C377.111 45.462 376.884 45.9808 376.884 46.6641C376.884 47.3221 377.111 47.8283 377.565 48.1826C378.044 48.5369 378.65 48.714 379.381 48.714C379.885 48.714 380.377 48.6508 380.856 48.5242C381.335 48.3724 381.751 48.1446 382.104 47.8409C382.483 47.5119 382.773 47.1197 382.974 46.6641C383.201 46.1833 383.315 45.6139 383.315 44.9559V39.7931Z" fill="url(#paint5_linear_174_650)"/>
<path d="M360.923 27.152V45.6771C360.923 46.6388 361.15 47.3348 361.603 47.765C362.057 48.1953 362.688 48.4104 363.495 48.4104C364.1 48.4104 364.629 48.3218 365.083 48.1446C365.537 47.9422 365.953 47.6891 366.332 47.3854L367.088 50.8019C366.483 51.2575 365.739 51.6244 364.856 51.9028C363.974 52.1812 363.053 52.3204 362.095 52.3204C360.179 52.3204 358.64 51.8902 357.48 51.0297C356.32 50.1439 355.74 48.6508 355.74 46.5503V28.5945L360.923 27.152ZM366.786 32.9601V36.8321H352.412V32.9601H366.786Z" fill="url(#paint6_linear_174_650)"/>
<path d="M341.118 39.7931C341.118 38.7302 340.828 37.895 340.248 37.2877C339.693 36.655 338.924 36.3386 337.94 36.3386C336.982 36.3386 336.163 36.579 335.482 37.0599C334.801 37.5407 334.309 38.3506 334.007 39.4894L329.619 38.1608C330.022 36.4652 330.943 35.1112 332.38 34.0989C333.817 33.0866 335.759 32.5804 338.205 32.5804C339.87 32.5804 341.307 32.8462 342.517 33.3776C343.728 33.8838 344.661 34.6557 345.316 35.6933C345.997 36.7309 346.338 38.0216 346.338 39.5653V47.2715C346.338 48.2585 346.779 48.752 347.662 48.752C347.863 48.752 348.065 48.7393 348.267 48.714C348.494 48.6887 348.683 48.6508 348.834 48.6002L348.532 51.7889C348.229 51.9408 347.876 52.0546 347.473 52.1306C347.069 52.2065 346.603 52.2445 346.073 52.2445C345.216 52.2445 344.434 52.1053 343.728 51.8269C343.047 51.5232 342.505 51.0677 342.101 50.4603C341.723 49.8276 341.534 49.0304 341.534 48.0687V47.765L342.253 47.6132C342.152 48.6508 341.773 49.5239 341.118 50.2325C340.462 50.9411 339.655 51.4726 338.697 51.8269C337.739 52.1559 336.73 52.3204 335.671 52.3204C333.855 52.3204 332.367 51.8775 331.207 50.9917C330.073 50.106 329.505 48.8153 329.505 47.1197C329.505 45.7784 329.921 44.6522 330.754 43.7411C331.586 42.83 332.859 42.1973 334.574 41.843L341.685 40.3246V43.3994L337.335 44.3105C336.478 44.4877 335.822 44.7534 335.368 45.1077C334.914 45.462 334.687 45.9808 334.687 46.6641C334.687 47.3221 334.914 47.8283 335.368 48.1826C335.847 48.5369 336.453 48.714 337.184 48.714C337.688 48.714 338.18 48.6508 338.659 48.5242C339.138 48.3724 339.554 48.1446 339.907 47.8409C340.286 47.5119 340.576 47.1197 340.777 46.6641C341.004 46.1833 341.118 45.6139 341.118 44.9559V39.7931Z" fill="url(#paint7_linear_174_650)"/>
<path d="M321.464 24.6844V46.0567C321.464 46.8666 321.59 47.4739 321.842 47.8789C322.094 48.2838 322.574 48.4862 323.28 48.4862C323.658 48.4862 323.973 48.4609 324.225 48.4103C324.503 48.3597 324.818 48.2585 325.171 48.1066L324.793 51.5232C324.389 51.7509 323.86 51.9407 323.204 52.0926C322.548 52.2444 321.931 52.3204 321.351 52.3204C319.409 52.3204 318.072 51.8142 317.341 50.8019C316.61 49.7896 316.244 48.3977 316.244 46.6261V24.6844H321.464Z" fill="url(#paint8_linear_174_650)"/>
<path d="M278.32 51.9408V32.9601H282.972L283.161 36.4905C283.767 35.1998 284.624 34.2254 285.734 33.5674C286.843 32.9094 288.066 32.5804 289.403 32.5804C290.764 32.5804 291.987 32.8968 293.072 33.5295C294.181 34.1622 294.988 35.1239 295.493 36.4145C295.871 35.5541 296.388 34.8455 297.043 34.2887C297.724 33.7066 298.481 33.2764 299.313 32.998C300.17 32.7196 301.028 32.5804 301.885 32.5804C303.121 32.5804 304.23 32.8335 305.214 33.3397C306.197 33.8458 306.992 34.6051 307.597 35.6174C308.202 36.6297 308.505 37.9077 308.505 39.4515V51.9408H303.285V40.5144C303.285 39.1478 302.982 38.1734 302.377 37.5914C301.772 36.984 301.003 36.6803 300.07 36.6803C299.313 36.6803 298.632 36.8701 298.027 37.2497C297.422 37.6293 296.93 38.1987 296.552 38.958C296.199 39.6919 296.022 40.5903 296.022 41.6532V51.9408H290.802V40.5144C290.802 39.1478 290.5 38.1734 289.894 37.5914C289.289 36.984 288.533 36.6803 287.625 36.6803C286.944 36.6803 286.288 36.8574 285.658 37.2117C285.027 37.566 284.511 38.1228 284.107 38.882C283.729 39.6413 283.54 40.6283 283.54 41.843V51.9408H278.32Z" fill="url(#paint9_linear_174_650)"/>
<path d="M259.087 52.3204C257.852 52.3204 256.742 52.0926 255.759 51.6371C254.775 51.1816 253.993 50.4603 253.413 49.4733C252.859 48.4863 252.581 47.183 252.581 45.5633V32.9601H257.801V44.3105C257.801 45.6265 258.053 46.6135 258.558 47.2715C259.087 47.9042 259.945 48.2206 261.13 48.2206C261.659 48.2206 262.164 48.1193 262.643 47.9169C263.122 47.7144 263.538 47.4107 263.891 47.0058C264.269 46.6009 264.559 46.0821 264.761 45.4494C264.963 44.8167 265.064 44.0828 265.064 43.2476V32.9601H270.284V51.9408H265.631L265.48 48.5243C265.076 49.3594 264.559 50.068 263.929 50.6501C263.324 51.2069 262.618 51.6244 261.811 51.9028C261.004 52.1812 260.096 52.3204 259.087 52.3204Z" fill="url(#paint10_linear_174_650)"/>
<path d="M240.821 27.152V45.6771C240.821 46.6388 241.047 47.3348 241.501 47.765C241.955 48.1953 242.586 48.4104 243.393 48.4104C243.998 48.4104 244.527 48.3218 244.981 48.1446C245.435 47.9422 245.851 47.6891 246.23 47.3854L246.986 50.8019C246.381 51.2575 245.637 51.6244 244.754 51.9028C243.872 52.1812 242.951 52.3204 241.993 52.3204C240.077 52.3204 238.538 51.8902 237.378 51.0297C236.218 50.1439 235.638 48.6508 235.638 46.5503V28.5945L240.821 27.152ZM246.684 32.9601V36.8321H232.31V32.9601H246.684Z" fill="url(#paint11_linear_174_650)"/>
<path d="M208.874 51.9408V32.9601H213.526L213.829 38.7682L213.224 38.1608C213.652 36.3133 214.472 34.9214 215.682 33.985C216.893 33.0486 218.355 32.5804 220.07 32.5804C221.356 32.5804 222.491 32.8462 223.475 33.3776C224.458 33.8838 225.227 34.643 225.782 35.6553C226.362 36.6676 226.652 37.933 226.652 39.4515V51.9408H221.432V40.894C221.432 39.3502 221.129 38.262 220.524 37.6293C219.919 36.9966 219.137 36.6803 218.179 36.6803C217.498 36.6803 216.842 36.8574 216.212 37.2117C215.582 37.5407 215.065 38.0848 214.661 38.8441C214.283 39.6033 214.094 40.5903 214.094 41.8051V51.9408H208.874Z" fill="url(#paint12_linear_174_650)"/>
<path d="M195.61 39.7931C195.61 38.7302 195.32 37.895 194.74 37.2877C194.185 36.655 193.416 36.3386 192.432 36.3386C191.474 36.3386 190.655 36.579 189.974 37.0599C189.293 37.5407 188.801 38.3506 188.498 39.4894L184.111 38.1608C184.514 36.4652 185.435 35.1112 186.872 34.0989C188.309 33.0866 190.251 32.5804 192.697 32.5804C194.361 32.5804 195.799 32.8462 197.009 33.3776C198.22 33.8838 199.153 34.6557 199.808 35.6933C200.489 36.7309 200.83 38.0216 200.83 39.5653V47.2715C200.83 48.2585 201.271 48.752 202.154 48.752C202.355 48.752 202.557 48.7393 202.759 48.714C202.986 48.6887 203.175 48.6508 203.326 48.6002L203.024 51.7889C202.721 51.9408 202.368 52.0546 201.964 52.1306C201.561 52.2065 201.094 52.2445 200.565 52.2445C199.708 52.2445 198.926 52.1053 198.22 51.8269C197.539 51.5232 196.997 51.0677 196.593 50.4603C196.215 49.8276 196.026 49.0304 196.026 48.0687V47.765L196.744 47.6132C196.644 48.6508 196.265 49.5239 195.61 50.2325C194.954 50.9411 194.147 51.4726 193.189 51.8269C192.231 52.1559 191.222 52.3204 190.163 52.3204C188.347 52.3204 186.859 51.8775 185.699 50.9917C184.565 50.106 183.997 48.8153 183.997 47.1197C183.997 45.7784 184.413 44.6522 185.245 43.7411C186.078 42.83 187.351 42.1973 189.066 41.843L196.177 40.3246V43.3994L191.827 44.3105C190.97 44.4877 190.314 44.7534 189.86 45.1077C189.406 45.462 189.179 45.9808 189.179 46.6641C189.179 47.3221 189.406 47.8283 189.86 48.1826C190.339 48.5369 190.945 48.714 191.676 48.714C192.18 48.714 192.672 48.6508 193.151 48.5242C193.63 48.3724 194.046 48.1446 194.399 47.8409C194.778 47.5119 195.068 47.1197 195.269 46.6641C195.496 46.1833 195.61 45.6139 195.61 44.9559V39.7931Z" fill="url(#paint13_linear_174_650)"/>
<path d="M165.902 52.3204C164.666 52.3204 163.556 52.0926 162.573 51.6371C161.589 51.1816 160.808 50.4603 160.228 49.4733C159.673 48.4863 159.396 47.183 159.396 45.5633V32.9601H164.616V44.3105C164.616 45.6265 164.868 46.6135 165.372 47.2715C165.902 47.9042 166.759 48.2206 167.944 48.2206C168.474 48.2206 168.978 48.1193 169.457 47.9169C169.936 47.7144 170.352 47.4107 170.706 47.0058C171.084 46.6009 171.374 46.0821 171.576 45.4494C171.777 44.8167 171.878 44.0828 171.878 43.2476V32.9601H177.098V51.9408H172.445L172.294 48.5243C171.891 49.3594 171.374 50.068 170.743 50.6501C170.138 51.2069 169.432 51.6244 168.625 51.9028C167.818 52.1812 166.91 52.3204 165.902 52.3204Z" fill="url(#paint14_linear_174_650)"/>
<path d="M146.358 59.533C144.87 59.533 143.533 59.2673 142.348 58.7358C141.188 58.2044 140.268 57.3819 139.587 56.2683C138.931 55.1801 138.603 53.8008 138.603 52.1305C138.603 51.7003 138.641 51.2701 138.717 50.8399C138.818 50.4096 138.982 49.9667 139.209 49.5112L142.5 48.9418C142.323 49.372 142.184 49.7769 142.083 50.1565C141.983 50.5362 141.932 50.8778 141.932 51.1815C141.932 52.3203 142.134 53.1935 142.537 53.8008C142.941 54.4082 143.483 54.8258 144.164 55.0536C144.845 55.3066 145.589 55.4332 146.396 55.4332C147.379 55.4332 148.224 55.3066 148.93 55.0536C149.661 54.8258 150.266 54.5095 150.746 54.1045L151.653 57.9766C151.048 58.4827 150.241 58.8624 149.233 59.1154C148.249 59.3938 147.291 59.533 146.358 59.533ZM140.533 26.5066C142.953 26.5066 145.034 27.0254 146.774 28.063C148.539 29.1006 149.888 30.5811 150.821 32.5045C151.78 34.4279 152.259 36.7309 152.259 39.4135C152.259 42.0961 151.78 44.3991 150.821 46.3224C149.888 48.2458 148.539 49.7263 146.774 50.7639C145.034 51.8015 142.953 52.3203 140.533 52.3203C138.112 52.3203 136.019 51.8015 134.254 50.7639C132.514 49.7263 131.164 48.2458 130.206 46.3224C129.248 44.3991 128.769 42.0961 128.769 39.4135C128.769 36.7309 129.248 34.4279 130.206 32.5045C131.164 30.5811 132.514 29.1006 134.254 28.063C136.019 27.0254 138.112 26.5066 140.533 26.5066ZM140.533 30.7962C139.196 30.7962 138.049 31.1252 137.09 31.7832C136.157 32.4412 135.439 33.4156 134.934 34.7063C134.43 35.9716 134.178 37.5407 134.178 39.4135C134.178 41.2609 134.43 42.83 134.934 44.1207C135.439 45.4114 136.157 46.3857 137.09 47.0437C138.049 47.7017 139.196 48.0307 140.533 48.0307C141.869 48.0307 143.004 47.7017 143.937 47.0437C144.87 46.3857 145.589 45.4114 146.093 44.1207C146.597 42.83 146.85 41.2609 146.85 39.4135C146.85 37.5407 146.597 35.9716 146.093 34.7063C145.589 33.4156 144.87 32.4412 143.937 31.7832C143.004 31.1252 141.869 30.7962 140.533 30.7962Z" fill="url(#paint15_linear_174_650)"/>
<defs>
<linearGradient id="paint0_linear_174_650" x1="53.5331" y1="30.3164" x2="67.9293" y2="80.4542" gradientUnits="userSpaceOnUse">
<stop stop-color="#EDB326"/>
<stop offset="1" stop-color="#F4B741"/>
</linearGradient>
<linearGradient id="paint1_linear_174_650" x1="49.2463" y1="-0.0581055" x2="88.406" y2="66.7353" gradientUnits="userSpaceOnUse">
<stop stop-color="#EDB326"/>
<stop offset="1" stop-color="#F4B741"/>
</linearGradient>
<linearGradient id="paint2_linear_174_650" x1="468.727" y1="26.8862" x2="480.509" y2="45.055" gradientUnits="userSpaceOnUse">
<stop stop-color="#EDB326"/>
<stop offset="1" stop-color="#F4B741"/>
</linearGradient>
<linearGradient id="paint3_linear_174_650" x1="444.038" y1="26.8862" x2="456.634" y2="42.595" gradientUnits="userSpaceOnUse">
<stop stop-color="#EDB326"/>
<stop offset="1" stop-color="#F4B741"/>
</linearGradient>
<linearGradient id="paint4_linear_174_650" x1="411.671" y1="32.5804" x2="418.219" y2="50.0739" gradientUnits="userSpaceOnUse">
<stop stop-color="#EDB326"/>
<stop offset="1" stop-color="#F4B741"/>
</linearGradient>
<linearGradient id="paint5_linear_174_650" x1="381.367" y1="32.5804" x2="390.309" y2="47.5863" gradientUnits="userSpaceOnUse">
<stop stop-color="#EDB326"/>
<stop offset="1" stop-color="#F4B741"/>
</linearGradient>
<linearGradient id="paint6_linear_174_650" x1="359.75" y1="27.152" x2="372.713" y2="40.1066" gradientUnits="userSpaceOnUse">
<stop stop-color="#EDB326"/>
<stop offset="1" stop-color="#F4B741"/>
</linearGradient>
<linearGradient id="paint7_linear_174_650" x1="339.17" y1="32.5804" x2="348.112" y2="47.5863" gradientUnits="userSpaceOnUse">
<stop stop-color="#EDB326"/>
<stop offset="1" stop-color="#F4B741"/>
</linearGradient>
<linearGradient id="paint8_linear_174_650" x1="320.707" y1="24.6844" x2="332.77" y2="31.362" gradientUnits="userSpaceOnUse">
<stop stop-color="#EDB326"/>
<stop offset="1" stop-color="#F4B741"/>
</linearGradient>
<linearGradient id="paint9_linear_174_650" x1="293.412" y1="32.5804" x2="299.959" y2="50.0739" gradientUnits="userSpaceOnUse">
<stop stop-color="#EDB326"/>
<stop offset="1" stop-color="#F4B741"/>
</linearGradient>
<linearGradient id="paint10_linear_174_650" x1="261.432" y1="32.9601" x2="270.477" y2="47.1322" gradientUnits="userSpaceOnUse">
<stop stop-color="#EDB326"/>
<stop offset="1" stop-color="#F4B741"/>
</linearGradient>
<linearGradient id="paint11_linear_174_650" x1="239.648" y1="27.152" x2="252.611" y2="40.1067" gradientUnits="userSpaceOnUse">
<stop stop-color="#EDB326"/>
<stop offset="1" stop-color="#F4B741"/>
</linearGradient>
<linearGradient id="paint12_linear_174_650" x1="217.763" y1="32.5804" x2="226.791" y2="46.7874" gradientUnits="userSpaceOnUse">
<stop stop-color="#EDB326"/>
<stop offset="1" stop-color="#F4B741"/>
</linearGradient>
<linearGradient id="paint13_linear_174_650" x1="193.662" y1="32.5804" x2="202.604" y2="47.5863" gradientUnits="userSpaceOnUse">
<stop stop-color="#EDB326"/>
<stop offset="1" stop-color="#F4B741"/>
</linearGradient>
<linearGradient id="paint14_linear_174_650" x1="168.247" y1="32.9601" x2="177.291" y2="47.1322" gradientUnits="userSpaceOnUse">
<stop stop-color="#EDB326"/>
<stop offset="1" stop-color="#F4B741"/>
</linearGradient>
<linearGradient id="paint15_linear_174_650" x1="140.514" y1="26.5066" x2="157.197" y2="46.8412" gradientUnits="userSpaceOnUse">
<stop stop-color="#EDB326"/>
<stop offset="1" stop-color="#F4B741"/>
</linearGradient>
</defs>
</svg>
