<svg width="30" height="30" viewBox="0 0 30 30" fill="none" xmlns="http://www.w3.org/2000/svg">
<rect x="0.25" y="0.25" width="29.5" height="29.5" rx="14.75" stroke="white" stroke-opacity="0.15" stroke-width="0.5"/>
<path d="M15 9C12.25 9 10 11.16 10 13.8C10 17.04 14.375 20.7 14.5625 20.88C14.6875 20.94 14.875 21 15 21C15.125 21 15.3125 20.94 15.4375 20.88C15.625 20.7 20 17.04 20 13.8C20 11.16 17.75 9 15 9ZM15 19.62C13.6875 18.42 11.25 15.84 11.25 13.8C11.25 11.82 12.9375 10.2 15 10.2C17.0625 10.2 18.75 11.82 18.75 13.8C18.75 15.78 16.3125 18.42 15 19.62ZM15 11.4C13.625 11.4 12.5 12.48 12.5 13.8C12.5 15.12 13.625 16.2 15 16.2C16.375 16.2 17.5 15.12 17.5 13.8C17.5 12.48 16.375 11.4 15 11.4ZM15 15C14.3125 15 13.75 14.46 13.75 13.8C13.75 13.14 14.3125 12.6 15 12.6C15.6875 12.6 16.25 13.14 16.25 13.8C16.25 14.46 15.6875 15 15 15Z" fill="white"/>
</svg>
