<svg width="30" height="30" viewBox="0 0 30 30" fill="none" xmlns="http://www.w3.org/2000/svg">
<rect x="0.25" y="0.25" width="29.5" height="29.5" rx="14.75" stroke="white" stroke-opacity="0.15" stroke-width="0.5"/>
<path d="M10.2712 10.1811H12.9228L13.7775 12.3178L12.4045 13.2331C12.2402 13.3427 12.1415 13.5271 12.1415 13.7245C12.143 13.7798 12.1415 13.7251 12.1415 13.7251L12.1415 13.7257L12.1415 13.7271L12.1415 13.73L12.1416 13.7373C12.1417 13.7428 12.1419 13.7494 12.1421 13.7571C12.1426 13.7726 12.1435 13.7926 12.1451 13.8169C12.1484 13.8654 12.1545 13.9309 12.1659 14.0111C12.1888 14.1713 12.2332 14.3907 12.3195 14.6495C12.4926 15.169 12.8329 15.8417 13.4956 16.5044C14.1583 17.1671 14.831 17.5074 15.3505 17.6805C15.6093 17.7668 15.8287 17.8112 15.9889 17.8341C16.0691 17.8455 16.1346 17.8516 16.1831 17.8549C16.2074 17.8565 16.2274 17.8574 16.2429 17.8579C16.2506 17.8581 16.2572 17.8583 16.2627 17.8584L16.27 17.8585L16.2729 17.8585L16.2743 17.8585H16.2749C16.2749 17.8585 16.3408 17.8549 16.2755 17.8585C16.4992 17.8585 16.7037 17.7321 16.8037 17.532L17.1992 16.741L19.8189 17.1776V19.7288C18.5721 19.9091 15.205 20.0868 12.5591 17.4409C9.9132 14.795 10.0909 11.4279 10.2712 10.1811ZM13.3661 14.0116L14.4327 13.3006C14.8974 12.9908 15.0816 12.3977 14.8741 11.8792L14.0195 9.74247C13.8401 9.29404 13.4058 9 12.9228 9H10.2404C9.70382 9 9.19878 9.37274 9.1107 9.95489C8.91031 11.2793 8.63756 15.1897 11.7239 18.2761C14.8103 21.3624 18.7207 21.0897 20.0451 20.8893C20.6273 20.8012 21 20.2962 21 19.7596V17.1776C21 16.6003 20.5826 16.1075 20.013 16.0126L17.3934 15.576C16.8819 15.4907 16.3746 15.749 16.1428 16.2128L15.9381 16.6221C15.8738 16.6063 15.802 16.586 15.724 16.56C15.3577 16.4379 14.8492 16.1876 14.3308 15.6692C13.8124 15.1508 13.5621 14.6423 13.44 14.276C13.407 14.177 13.3832 14.088 13.3661 14.0116Z" fill="white"/>
</svg>
