<svg width="332" height="58" viewBox="0 0 332 58" fill="none" xmlns="http://www.w3.org/2000/svg">
<path d="M54.5692 23.028L58.0331 27.9625L38.7451 41.2315L29.1011 33.0625L27.0348 31.3099L25.4005 32.897L0 57.5808L26.7117 38.7116L35.6832 49.1147L37.6856 51.4352L40.8076 49.5434L62.5752 34.4315L65.7874 39.0087L74 21.298L54.5692 23.028Z" fill="url(#paint0_linear_165_308)"/>
<mask id="mask0_165_308" style="mask-type:luminance" maskUnits="userSpaceOnUse" x="4" y="0" width="59" height="46">
<path d="M25.2008 29.4218L26.9139 27.7594L28.7323 29.3015L30.7986 31.0504L38.906 37.9218L54.347 27.3006L52.4309 24.54L49.8011 20.809L54.3394 20.4066L62.0524 19.7296C60.5715 15.8425 58.2992 12.3062 55.3799 9.34534C52.4607 6.38448 48.9582 4.0638 45.095 2.53069C41.2318 0.997575 37.0923 0.285553 32.9395 0.439847C28.7867 0.594142 24.7113 1.61138 20.9722 3.42695C17.2332 5.24251 13.9122 7.81673 11.2202 10.9861C8.52814 14.1554 6.52396 17.8506 5.33494 21.8369C4.14591 25.8232 3.79802 30.0135 4.31337 34.1416C4.82871 38.2698 6.19603 42.2455 8.32847 45.8162L23.5665 31.0127L25.2008 29.4218Z" fill="white"/>
</mask>
<g mask="url(#mask0_165_308)">
<path d="M16.8926 5.76734C28.2458 -2.17827 43.8676 -1.33477 54.3164 8.2937C54.1075 8.20097 53.9161 8.16347 53.7461 8.19117C51.1164 8.56729 52.7202 11.2892 54.6474 10.823C54.8615 11.1351 54.8284 11.6806 54.9072 12.0642C53.0289 11.8273 52.157 12.1848 51.124 13.655C47.8219 13.8544 51.2099 15.777 49.4824 16.2585C46.3944 15.0175 45.4509 19.2068 48.5273 19.2673C51.2924 19.2372 49.7526 16.7513 53.8965 15.905C53.6572 16.9204 57.9157 18.2024 55.4219 18.4695C54.971 19.9739 58.1718 18.5522 56.2861 17.0027C55.8986 16.9209 55.5517 16.7057 55.3066 16.3943C55.0616 16.0831 54.9333 15.6957 54.9443 15.2996C56.8753 14.9686 57.6687 16.7693 58.1045 18.2849C58.9498 19.4132 59.1412 18.3566 59.4267 17.533C59.6936 17.0104 60.4482 17.0669 60.3242 17.74C62.9929 21.4092 60.6243 16.247 57.8789 12.199C60.1367 15.1584 61.7716 18.4412 62.7812 21.8699C61.1546 22.5615 59.3175 19.8164 58.0703 21.1853C57.5895 22.5689 56.6991 21.1587 55.8164 21.2185C52.3263 20.9176 56.4884 17.4581 49.9258 19.8611C45.286 19.2932 47.2955 21.8212 44.5342 23.6716C40.7775 25.3565 45.0339 25.868 42.9453 27.2859C42.5323 29.565 44.7444 33.0847 47.1035 32.8933C49.8083 32.0359 51.5631 32.4304 54.1025 33.0847C53.524 35.142 54.3175 36.8463 55.501 38.4373C56.7777 40.0731 54.152 41.2281 55.125 42.864C55.7597 43.2025 55.9325 43.7438 55.9062 44.4431C55.6095 46.2446 57.2703 47.565 57.2441 49.3552C57.3204 49.2655 57.3956 49.1747 57.4707 49.0837C56.7779 49.9515 56.0315 50.7916 55.2285 51.5955C43.525 63.3115 24.5502 63.3114 12.8467 51.5955C3.40701 42.1454 1.58148 27.9597 7.36913 16.6775C6.66159 18.6617 6.59354 20.7108 7.55077 22.738C7.60712 23.8287 8.89252 25.4428 9.72655 25.157C9.83174 23.8293 8.29531 23.0465 8.50194 21.6511C8.23172 20.8165 9.30136 20.9632 9.20409 21.7263C9.29426 22.896 10.1361 23.6904 10.6133 24.6834C11.5292 25.7704 10.3019 27.6318 12.7285 27.9138C13.5064 28.6052 15.3993 27.5115 15.3955 28.4705C15.7337 29.3728 17.1573 29.0194 17.7998 29.5984C19.1785 32.4265 21.2823 30.8061 21.707 32.1521C22.5861 34.0326 19.8553 34.0667 20.3174 35.8757C19.6073 37.4629 20.6662 38.5426 21.7519 39.5769C22.4469 41.3819 23.5252 41.4797 24.915 42.6453C25.8881 44.0369 25.0508 46.3391 25.3213 48.0466C26.6135 48.7537 24.7845 50.7661 26.3398 51.8718C26.7826 52.3533 26.599 53.1918 26.3398 53.8611C26.4939 55.403 27.7143 56.8357 28.706 57.8474C29.2508 58.7726 32.6884 58.9762 30.9228 57.6335C29.5365 56.9453 31.2454 55.3352 29.9267 54.9177C29.2547 54.7146 29.1426 54.2975 29.706 53.7673C30.5022 53.1018 29.0633 53.0747 29.3301 52.4617C29.5405 52.086 29.9686 52.2665 30.3066 52.2214C31.8919 51.6912 32.9363 50.3898 33.7402 48.8367C34.3977 48.344 34.9091 47.8357 34.6123 46.8503C33.3463 43.8153 37.9591 45.8274 37.9629 43.0593C37.4258 40.5659 40.6568 37.8728 39.3535 37.4402C36.9905 34.9768 36.5245 36.4773 33.6582 35.3191C32.3509 34.943 33.3947 32.5514 31.8662 32.3103C29.6571 33.0813 29.8366 29.8467 28.1084 30.3582C27.2971 30.8431 26.5423 30.8886 25.8174 30.0691C23.3453 28.1059 23.2776 31.9938 19.9717 30.8806C19.3408 29.2786 20.4183 27.7557 17.9541 27.6541C17.8301 27.0561 18.9531 26.4656 18.3633 25.8601C17.2137 25.8603 16.3008 27.6278 14.7793 27.075C12.6154 24.6905 16.2818 21.5538 18.8516 22.1101C20.9216 21.7979 20.1819 22.5916 21.3916 23.6785C22.5748 23.4752 20.9333 21.2192 23.7471 20.4783C24.6524 20.0646 24.4797 18.7745 25.3359 18.4734C26.3465 16.7209 28.5744 16.1267 29.7617 14.4646C30.1373 14.412 30.5132 14.8401 30.915 14.4646C29.4988 13.9155 30.0137 12.5835 31.291 13.3357C32.0423 14.2157 32.7298 13.2867 33.5449 13.2791C33.7853 13.7868 32.8199 14.1861 33.3193 14.6111C33.834 14.8556 34.9242 15.5319 35.2773 14.8962C35.157 14.4188 34.7731 14.2536 34.375 14.0769C33.1209 13.4565 35.2914 13.2907 34.9541 12.3884C32.5309 10.2071 34.9538 9.16088 32.5459 10.1687C30.536 10.9999 33.2106 7.99542 29.165 8.70972C28.1807 9.46193 29.4349 11.2367 27.8945 11.4812C26.7302 11.4513 27.0418 13.1781 25.9863 13.0466C25.6108 12.885 25.7453 12.5349 25.7754 12.2341C25.8768 11.0193 24.5024 11.5376 23.8262 10.9998C21.3957 8.92371 27.4517 7.442 28.7666 7.89331C28.8113 7.62628 28.3272 7.22388 28.7666 7.18628C29.7996 6.93038 30.4836 5.76878 31.7383 6.05835C33.8193 6.32166 32.5866 7.18644 31.4746 7.64527C30.664 8.22438 33.4361 8.71687 33.917 8.39722C33.9659 7.70935 34.4543 7.64495 35.0439 7.68628C35.6337 7.72765 36.0321 6.70945 35.2324 6.66773C34.9133 6.56624 34.9539 6.26915 34.9502 5.99097C33.9847 4.34363 30.6332 3.64027 29.1455 5.12964C29.007 5.63005 29.521 6.66763 28.3154 6.4646C27.0344 5.80268 28.4356 5.10293 28.6123 4.51245C27.861 4.56886 27.0082 4.39927 26.332 4.57593C25.7535 5.59517 26.5389 5.04263 26.708 5.62183C26.708 5.99788 26.3057 6.20117 26.0127 6.28394C24.9983 6.47951 22.6915 7.68295 23.1836 5.70093C24.1227 5.82502 25.3396 5.46397 25.4375 4.46753C24.7575 4.12911 24.6561 4.89946 24.2353 5.08374C22.6124 5.56885 22.4473 3.4223 20.7832 3.9148C20.4384 3.95565 20.1067 4.07383 19.8144 4.26148C19.5223 4.4491 19.2765 4.70123 19.0957 4.99781C19.4188 5.37391 20.1444 4.99768 20.3135 5.37378C20.3471 5.59582 20.0768 6.24982 20.3848 6.12574C20.8358 5.87015 22.5407 6.24968 21.6504 6.80249C20.0488 7.22763 18.5071 5.15495 16.8926 5.76734ZM64.0039 30.1121C64.0435 34.5717 63.0958 39.0377 61.1611 43.155C63.013 39.1386 64.0107 34.6062 64.0039 30.1121ZM29.8291 15.6335C29.7874 15.6373 29.747 15.6503 29.7109 15.6716C29.6747 15.6931 29.6435 15.7226 29.6201 15.7576C29.5968 15.7925 29.5812 15.8322 29.5752 15.8738C29.5692 15.9155 29.5724 15.9586 29.5849 15.9988V16.0095C29.5849 16.363 30.1824 16.3146 30.1338 15.95C30.139 15.9083 30.1352 15.8658 30.1221 15.8259C30.1088 15.786 30.0868 15.7488 30.0576 15.7185C30.0284 15.6882 29.9925 15.6649 29.9531 15.6501C29.9137 15.6354 29.871 15.6298 29.8291 15.6335ZM31.9707 15.4988C32.9249 15.5702 31.7984 14.6109 31.7119 15.4607V15.4724C29.751 15.3483 31.9215 16.9311 31.9707 15.4988ZM50.9248 12.4441C49.7451 11.8611 49.6169 8.42383 48.332 10.8835C51.3037 12.2789 46.8299 13.3362 49.9219 13.5017C50.5194 13.6216 51.9088 12.8314 50.9248 12.4441ZM47.9375 11.3015C47.5019 11.5233 47.0549 11.7261 46.8633 12.241C45.9466 14.5314 50.3908 11.7265 47.9375 11.3015ZM15.9678 6.44312C15.0577 7.17583 14.1165 7.97219 13.2002 8.82105C14.0852 7.96321 15.0092 7.17018 15.9678 6.44312Z" fill="url(#paint1_linear_165_308)"/>
</g>
<path d="M331.757 36.1905H327.443L323.861 30.099L320.332 36.1905H316.175L321.927 27.4584L316.567 18.9356H320.855L324.149 24.7395L327.469 18.9356H331.443L326.058 27.3539L331.757 36.1905Z" fill="url(#paint2_linear_165_308)"/>
<path d="M313.203 21.8375H304.235V26.2297H311.346V29.1578H304.235V36.1905H300.601V18.9356H313.203V21.8375Z" fill="url(#paint3_linear_165_308)"/>
<path d="M274.1 36.1904V23.1186H277.316L277.446 25.5499C277.865 24.661 278.457 23.99 279.224 23.5369C279.991 23.0837 280.836 22.8571 281.76 22.8571C282.701 22.8571 283.547 23.075 284.296 23.5107C285.063 23.9464 285.621 24.6088 285.969 25.4976C286.231 24.905 286.588 24.417 287.041 24.0336C287.512 23.6327 288.035 23.3364 288.61 23.1447C289.202 22.953 289.795 22.8571 290.388 22.8571C291.242 22.8571 292.009 23.0314 292.688 23.38C293.368 23.7286 293.917 24.2515 294.335 24.9486C294.754 25.6458 294.963 26.526 294.963 27.5891V36.1904H291.355V28.3212C291.355 27.38 291.146 26.709 290.727 26.3081C290.309 25.8898 289.778 25.6806 289.133 25.6806C288.61 25.6806 288.139 25.8114 287.721 26.0728C287.303 26.3342 286.963 26.7264 286.701 27.2493C286.457 27.7547 286.335 28.3735 286.335 29.1055V36.1904H282.727V28.3212C282.727 27.38 282.518 26.709 282.1 26.3081C281.682 25.8898 281.159 25.6806 280.531 25.6806C280.061 25.6806 279.608 25.8027 279.172 26.0467C278.736 26.2907 278.379 26.6741 278.1 27.197C277.839 27.7199 277.708 28.3996 277.708 29.2362V36.1904H274.1Z" fill="url(#paint4_linear_165_308)"/>
<path d="M264.932 27.8244C264.932 27.0924 264.732 26.5172 264.331 26.0989C263.948 25.6632 263.416 25.4454 262.736 25.4454C262.074 25.4454 261.508 25.6109 261.037 25.9421C260.566 26.2732 260.227 26.831 260.017 27.6153L256.985 26.7003C257.264 25.5325 257.9 24.6 258.893 23.9029C259.887 23.2057 261.229 22.8571 262.919 22.8571C264.07 22.8571 265.063 23.0401 265.9 23.4061C266.736 23.7547 267.381 24.2863 267.834 25.0009C268.305 25.7155 268.54 26.6044 268.54 27.6676V32.9748C268.54 33.6545 268.845 33.9944 269.455 33.9944C269.595 33.9944 269.734 33.9857 269.874 33.9682C270.03 33.9508 270.161 33.9247 270.266 33.8898L270.057 36.0859C269.847 36.1904 269.603 36.2689 269.325 36.3212C269.046 36.3735 268.723 36.3996 268.357 36.3996C267.765 36.3996 267.224 36.3037 266.736 36.112C266.266 35.9029 265.891 35.5891 265.612 35.1708C265.351 34.7351 265.22 34.1861 265.22 33.5238V33.3146L265.717 33.2101C265.647 33.9247 265.386 34.526 264.932 35.014C264.479 35.502 263.922 35.868 263.259 36.112C262.597 36.3386 261.9 36.4519 261.168 36.4519C259.913 36.4519 258.884 36.1469 258.083 35.5369C257.298 34.9268 256.906 34.0379 256.906 32.8702C256.906 31.9464 257.194 31.1708 257.769 30.5434C258.344 29.9159 259.224 29.4802 260.41 29.2362L265.325 28.1904V30.3081L262.318 30.9355C261.725 31.0576 261.272 31.2406 260.959 31.4846C260.645 31.7286 260.488 32.0859 260.488 32.5565C260.488 33.0096 260.645 33.3582 260.959 33.6022C261.29 33.8462 261.708 33.9682 262.213 33.9682C262.562 33.9682 262.902 33.9247 263.233 33.8375C263.564 33.7329 263.852 33.5761 264.096 33.3669C264.357 33.1403 264.558 32.8702 264.697 32.5565C264.854 32.2253 264.932 31.8331 264.932 31.38V27.8244Z" fill="url(#paint5_linear_165_308)"/>
<path d="M249.456 19.1186V31.8767C249.456 32.539 249.613 33.0183 249.926 33.3146C250.24 33.6109 250.676 33.7591 251.234 33.7591C251.652 33.7591 252.018 33.6981 252.332 33.5761C252.645 33.4366 252.933 33.2624 253.194 33.0532L253.717 35.4061C253.299 35.7199 252.785 35.9726 252.175 36.1643C251.565 36.356 250.929 36.4519 250.266 36.4519C248.942 36.4519 247.878 36.1556 247.077 35.563C246.275 34.953 245.874 33.9247 245.874 32.478V20.112L249.456 19.1186ZM253.508 23.1186V25.7852H243.573V23.1186H253.508Z" fill="url(#paint6_linear_165_308)"/>
<path d="M235.767 27.8244C235.767 27.0924 235.567 26.5172 235.166 26.0989C234.783 25.6632 234.251 25.4454 233.571 25.4454C232.909 25.4454 232.343 25.6109 231.872 25.9421C231.401 26.2732 231.062 26.831 230.852 27.6153L227.82 26.7003C228.099 25.5325 228.735 24.6 229.728 23.9029C230.722 23.2057 232.064 22.8571 233.754 22.8571C234.905 22.8571 235.898 23.0401 236.735 23.4061C237.571 23.7547 238.216 24.2863 238.669 25.0009C239.14 25.7155 239.375 26.6044 239.375 27.6676V32.9748C239.375 33.6545 239.68 33.9944 240.29 33.9944C240.43 33.9944 240.569 33.9857 240.709 33.9682C240.866 33.9508 240.996 33.9247 241.101 33.8898L240.892 36.0859C240.683 36.1904 240.439 36.2689 240.16 36.3212C239.881 36.3735 239.558 36.3996 239.192 36.3996C238.6 36.3996 238.059 36.3037 237.571 36.112C237.101 35.9029 236.726 35.5891 236.447 35.1708C236.186 34.7351 236.055 34.1861 236.055 33.5238V33.3146L236.552 33.2101C236.482 33.9247 236.221 34.526 235.767 35.014C235.314 35.502 234.757 35.868 234.094 36.112C233.432 36.3386 232.735 36.4519 232.003 36.4519C230.748 36.4519 229.72 36.1469 228.918 35.5369C228.133 34.9268 227.741 34.0379 227.741 32.8702C227.741 31.9464 228.029 31.1708 228.604 30.5434C229.179 29.9159 230.059 29.4802 231.245 29.2362L236.16 28.1904V30.3081L233.153 30.9355C232.561 31.0576 232.107 31.2406 231.794 31.4846C231.48 31.7286 231.323 32.0859 231.323 32.5565C231.323 33.0096 231.48 33.3582 231.794 33.6022C232.125 33.8462 232.543 33.9682 233.049 33.9682C233.397 33.9682 233.737 33.9247 234.068 33.8375C234.399 33.7329 234.687 33.5761 234.931 33.3669C235.192 33.1403 235.393 32.8702 235.532 32.5565C235.689 32.2253 235.767 31.8331 235.767 31.38V27.8244Z" fill="url(#paint7_linear_165_308)"/>
<path d="M222.184 17.4192V32.1382C222.184 32.6959 222.271 33.1142 222.445 33.3931C222.619 33.6719 222.95 33.8114 223.438 33.8114C223.7 33.8114 223.918 33.7939 224.092 33.7591C224.284 33.7242 224.502 33.6545 224.746 33.5499L224.484 35.9029C224.205 36.0597 223.839 36.1904 223.386 36.295C222.933 36.3996 222.506 36.4519 222.105 36.4519C220.763 36.4519 219.839 36.1033 219.334 35.4061C218.828 34.709 218.576 33.7504 218.576 32.5303V17.4192H222.184Z" fill="url(#paint8_linear_165_308)"/>
<path d="M192.364 36.1904V23.1186H195.58L195.71 25.5499C196.129 24.661 196.721 23.99 197.488 23.5369C198.255 23.0837 199.1 22.8571 200.024 22.8571C200.965 22.8571 201.81 23.075 202.56 23.5107C203.327 23.9464 203.885 24.6088 204.233 25.4976C204.495 24.905 204.852 24.417 205.305 24.0336C205.776 23.6327 206.298 23.3364 206.874 23.1447C207.466 22.953 208.059 22.8571 208.651 22.8571C209.505 22.8571 210.272 23.0314 210.952 23.38C211.632 23.7286 212.181 24.2515 212.599 24.9486C213.017 25.6458 213.227 26.526 213.227 27.5891V36.1904H209.619V28.3212C209.619 27.38 209.41 26.709 208.991 26.3081C208.573 25.8898 208.041 25.6806 207.397 25.6806C206.874 25.6806 206.403 25.8114 205.985 26.0728C205.566 26.3342 205.227 26.7264 204.965 27.2493C204.721 27.7547 204.599 28.3735 204.599 29.1055V36.1904H200.991V28.3212C200.991 27.38 200.782 26.709 200.364 26.3081C199.946 25.8898 199.423 25.6806 198.795 25.6806C198.325 25.6806 197.871 25.8027 197.436 26.0467C197 26.2907 196.643 26.6741 196.364 27.197C196.102 27.7199 195.972 28.3996 195.972 29.2362V36.1904H192.364Z" fill="url(#paint9_linear_165_308)"/>
<path d="M179.071 36.4519C178.217 36.4519 177.45 36.295 176.77 35.9813C176.091 35.6676 175.55 35.1709 175.15 34.4911C174.766 33.8114 174.574 32.9138 174.574 31.7983V23.1186H178.182V30.9356C178.182 31.8419 178.357 32.5216 178.705 32.9748C179.071 33.4105 179.664 33.6284 180.483 33.6284C180.849 33.6284 181.197 33.5587 181.529 33.4192C181.86 33.2798 182.147 33.0706 182.391 32.7918C182.653 32.5129 182.853 32.1556 182.993 31.7199C183.132 31.2841 183.202 30.7787 183.202 30.2035V23.1186H186.81V36.1905H183.594L183.489 33.8375C183.211 34.4127 182.853 34.9007 182.418 35.3016C181.999 35.685 181.511 35.9726 180.953 36.1643C180.396 36.356 179.768 36.4519 179.071 36.4519Z" fill="url(#paint10_linear_165_308)"/>
<path d="M166.446 19.1186V31.8767C166.446 32.539 166.603 33.0183 166.916 33.3146C167.23 33.6109 167.666 33.7591 168.224 33.7591C168.642 33.7591 169.008 33.6981 169.322 33.5761C169.635 33.4366 169.923 33.2624 170.184 33.0532L170.707 35.4061C170.289 35.7199 169.775 35.9726 169.165 36.1643C168.555 36.356 167.919 36.4519 167.256 36.4519C165.932 36.4519 164.869 36.1556 164.067 35.563C163.265 34.953 162.864 33.9247 162.864 32.478V20.112L166.446 19.1186ZM170.498 23.1186V25.7852H160.564V23.1186H170.498Z" fill="url(#paint11_linear_165_308)"/>
<path d="M144.365 36.1904V23.1186H147.581L147.79 27.1186L147.372 26.7003C147.668 25.4279 148.235 24.4693 149.071 23.8244C149.908 23.1796 150.919 22.8571 152.104 22.8571C152.993 22.8571 153.777 23.0401 154.457 23.4061C155.137 23.7547 155.668 24.2776 156.052 24.9748C156.453 25.6719 156.653 26.5434 156.653 27.5891V36.1904H153.045V28.5826C153.045 27.5194 152.836 26.77 152.418 26.3342C151.999 25.8985 151.459 25.6806 150.797 25.6806C150.326 25.6806 149.873 25.8027 149.437 26.0467C149.002 26.2732 148.644 26.648 148.365 27.1708C148.104 27.6937 147.973 28.3735 147.973 29.2101V36.1904H144.365Z" fill="url(#paint12_linear_165_308)"/>
<path d="M135.198 27.8244C135.198 27.0924 134.997 26.5172 134.597 26.0989C134.213 25.6632 133.682 25.4454 133.002 25.4454C132.34 25.4454 131.773 25.6109 131.302 25.9421C130.832 26.2732 130.492 26.831 130.283 27.6153L127.25 26.7003C127.529 25.5325 128.165 24.6 129.159 23.9029C130.152 23.2057 131.494 22.8571 133.185 22.8571C134.335 22.8571 135.329 23.0401 136.165 23.4061C137.002 23.7547 137.647 24.2863 138.1 25.0009C138.57 25.7155 138.806 26.6044 138.806 27.6676V32.9748C138.806 33.6545 139.111 33.9944 139.721 33.9944C139.86 33.9944 140 33.9857 140.139 33.9682C140.296 33.9508 140.427 33.9247 140.531 33.8898L140.322 36.0859C140.113 36.1904 139.869 36.2689 139.59 36.3212C139.311 36.3735 138.989 36.3996 138.623 36.3996C138.03 36.3996 137.49 36.3037 137.002 36.112C136.531 35.9029 136.156 35.5891 135.878 35.1708C135.616 34.7351 135.485 34.1861 135.485 33.5238V33.3146L135.982 33.2101C135.912 33.9247 135.651 34.526 135.198 35.014C134.745 35.502 134.187 35.868 133.525 36.112C132.862 36.3386 132.165 36.4519 131.433 36.4519C130.178 36.4519 129.15 36.1469 128.348 35.5369C127.564 34.9268 127.172 34.0379 127.172 32.8702C127.172 31.9464 127.459 31.1708 128.034 30.5434C128.61 29.9159 129.49 29.4802 130.675 29.2362L135.59 28.1904V30.3081L132.584 30.9355C131.991 31.0576 131.538 31.2406 131.224 31.4846C130.91 31.7286 130.753 32.0859 130.753 32.5565C130.753 33.0096 130.91 33.3582 131.224 33.6022C131.555 33.8462 131.973 33.9682 132.479 33.9682C132.828 33.9682 133.167 33.9247 133.499 33.8375C133.83 33.7329 134.117 33.5761 134.361 33.3669C134.623 33.1403 134.823 32.8702 134.963 32.5565C135.119 32.2253 135.198 31.8331 135.198 31.38V27.8244Z" fill="url(#paint13_linear_165_308)"/>
<path d="M114.665 36.4519C113.811 36.4519 113.044 36.295 112.364 35.9813C111.684 35.6676 111.144 35.1709 110.743 34.4911C110.36 33.8114 110.168 32.9138 110.168 31.7983V23.1186H113.776V30.9356C113.776 31.8419 113.95 32.5216 114.299 32.9748C114.665 33.4105 115.257 33.6284 116.077 33.6284C116.443 33.6284 116.791 33.5587 117.122 33.4192C117.453 33.2798 117.741 33.0706 117.985 32.7918C118.246 32.5129 118.447 32.1556 118.586 31.7199C118.726 31.2841 118.796 30.7787 118.796 30.2035V23.1186H122.403V36.1905H119.188L119.083 33.8375C118.804 34.4127 118.447 34.9007 118.011 35.3016C117.593 35.685 117.105 35.9726 116.547 36.1643C115.989 36.356 115.362 36.4519 114.665 36.4519Z" fill="url(#paint14_linear_165_308)"/>
<path d="M101.157 41.4192C100.129 41.4192 99.2048 41.2362 98.3856 40.8702C97.5839 40.5042 96.9477 39.9377 96.4771 39.1709C96.024 38.4214 95.7974 37.4715 95.7974 36.3212C95.7974 36.0249 95.8235 35.7286 95.8758 35.4323C95.9455 35.136 96.0588 34.831 96.2157 34.5173L98.4902 34.1251C98.3682 34.4214 98.2723 34.7003 98.2026 34.9617C98.1329 35.2231 98.098 35.4584 98.098 35.6676C98.098 36.4519 98.2375 37.0532 98.5163 37.4715C98.7952 37.8898 99.1699 38.1774 99.6405 38.3342C100.111 38.5085 100.625 38.5957 101.183 38.5957C101.863 38.5957 102.447 38.5085 102.935 38.3342C103.44 38.1774 103.858 37.9595 104.19 37.6807L104.817 40.3473C104.399 40.6959 103.841 40.9573 103.144 41.1316C102.464 41.3234 101.802 41.4192 101.157 41.4192ZM97.1307 18.6741C98.8039 18.6741 100.242 19.0314 101.444 19.746C102.664 20.4606 103.597 21.4802 104.242 22.8048C104.904 24.1295 105.235 25.7155 105.235 27.563C105.235 29.4105 104.904 30.9966 104.242 32.3212C103.597 33.6458 102.664 34.6654 101.444 35.38C100.242 36.0946 98.8039 36.4519 97.1307 36.4519C95.4575 36.4519 94.0109 36.0946 92.7908 35.38C91.5882 34.6654 90.6558 33.6458 89.9935 32.3212C89.3312 30.9966 89 29.4105 89 27.563C89 25.7155 89.3312 24.1295 89.9935 22.8048C90.6558 21.4802 91.5882 20.4606 92.7908 19.746C94.0109 19.0314 95.4575 18.6741 97.1307 18.6741ZM97.1307 21.6284C96.207 21.6284 95.4139 21.855 94.7516 22.3081C94.1068 22.7613 93.61 23.4323 93.2614 24.3212C92.9129 25.1926 92.7386 26.2733 92.7386 27.563C92.7386 28.8353 92.9129 29.916 93.2614 30.8048C93.61 31.6937 94.1068 32.3648 94.7516 32.8179C95.4139 33.2711 96.207 33.4977 97.1307 33.4977C98.0545 33.4977 98.8388 33.2711 99.4837 32.8179C100.129 32.3648 100.625 31.6937 100.974 30.8048C101.322 29.916 101.497 28.8353 101.497 27.563C101.497 26.2733 101.322 25.1926 100.974 24.3212C100.625 23.4323 100.129 22.7613 99.4837 22.3081C98.8388 21.855 98.0545 21.6284 97.1307 21.6284Z" fill="url(#paint15_linear_165_308)"/>
<defs>
<linearGradient id="paint0_linear_165_308" x1="37" y1="21.298" x2="46.8846" y2="55.8463" gradientUnits="userSpaceOnUse">
<stop stop-color="#EDB326"/>
<stop offset="1" stop-color="#F4B741"/>
</linearGradient>
<linearGradient id="paint1_linear_165_308" x1="34.0372" y1="0.379662" x2="60.9587" y2="46.464" gradientUnits="userSpaceOnUse">
<stop stop-color="#EDB326"/>
<stop offset="1" stop-color="#F4B741"/>
</linearGradient>
<linearGradient id="paint2_linear_165_308" x1="323.966" y1="18.9356" x2="332.069" y2="31.4747" gradientUnits="userSpaceOnUse">
<stop stop-color="#EDB326"/>
<stop offset="1" stop-color="#F4B741"/>
</linearGradient>
<linearGradient id="paint3_linear_165_308" x1="306.902" y1="18.9356" x2="315.57" y2="29.7843" gradientUnits="userSpaceOnUse">
<stop stop-color="#EDB326"/>
<stop offset="1" stop-color="#F4B741"/>
</linearGradient>
<linearGradient id="paint4_linear_165_308" x1="284.531" y1="22.8571" x2="289.028" y2="34.9153" gradientUnits="userSpaceOnUse">
<stop stop-color="#EDB326"/>
<stop offset="1" stop-color="#F4B741"/>
</linearGradient>
<linearGradient id="paint5_linear_165_308" x1="263.586" y1="22.8571" x2="269.734" y2="33.2109" gradientUnits="userSpaceOnUse">
<stop stop-color="#EDB326"/>
<stop offset="1" stop-color="#F4B741"/>
</linearGradient>
<linearGradient id="paint6_linear_165_308" x1="248.645" y1="19.1186" x2="257.573" y2="28.0723" gradientUnits="userSpaceOnUse">
<stop stop-color="#EDB326"/>
<stop offset="1" stop-color="#F4B741"/>
</linearGradient>
<linearGradient id="paint7_linear_165_308" x1="234.421" y1="22.8571" x2="240.569" y2="33.2109" gradientUnits="userSpaceOnUse">
<stop stop-color="#EDB326"/>
<stop offset="1" stop-color="#F4B741"/>
</linearGradient>
<linearGradient id="paint8_linear_165_308" x1="221.661" y1="17.4192" x2="229.984" y2="22.0432" gradientUnits="userSpaceOnUse">
<stop stop-color="#EDB326"/>
<stop offset="1" stop-color="#F4B741"/>
</linearGradient>
<linearGradient id="paint9_linear_165_308" x1="202.795" y1="22.8571" x2="207.292" y2="34.9153" gradientUnits="userSpaceOnUse">
<stop stop-color="#EDB326"/>
<stop offset="1" stop-color="#F4B741"/>
</linearGradient>
<linearGradient id="paint10_linear_165_308" x1="180.692" y1="23.1186" x2="186.911" y2="32.899" gradientUnits="userSpaceOnUse">
<stop stop-color="#EDB326"/>
<stop offset="1" stop-color="#F4B741"/>
</linearGradient>
<linearGradient id="paint11_linear_165_308" x1="165.635" y1="19.1186" x2="174.563" y2="28.0723" gradientUnits="userSpaceOnUse">
<stop stop-color="#EDB326"/>
<stop offset="1" stop-color="#F4B741"/>
</linearGradient>
<linearGradient id="paint12_linear_165_308" x1="150.509" y1="22.8571" x2="156.717" y2="32.6615" gradientUnits="userSpaceOnUse">
<stop stop-color="#EDB326"/>
<stop offset="1" stop-color="#F4B741"/>
</linearGradient>
<linearGradient id="paint13_linear_165_308" x1="133.851" y1="22.8571" x2="140" y2="33.2109" gradientUnits="userSpaceOnUse">
<stop stop-color="#EDB326"/>
<stop offset="1" stop-color="#F4B741"/>
</linearGradient>
<linearGradient id="paint14_linear_165_308" x1="116.286" y1="23.1186" x2="122.505" y2="32.899" gradientUnits="userSpaceOnUse">
<stop stop-color="#EDB326"/>
<stop offset="1" stop-color="#F4B741"/>
</linearGradient>
<linearGradient id="paint15_linear_165_308" x1="97.1176" y1="18.6741" x2="108.599" y2="32.7187" gradientUnits="userSpaceOnUse">
<stop stop-color="#EDB326"/>
<stop offset="1" stop-color="#F4B741"/>
</linearGradient>
</defs>
</svg>
