<svg width="206" height="166" viewBox="0 0 206 166" fill="none" xmlns="http://www.w3.org/2000/svg">
<rect x="88.7012" y="116.642" width="117.049" height="49.0986" rx="9.75" fill="white" fill-opacity="0.2" stroke="#949494" stroke-width="0.5"/>
<path d="M111.981 139.405C112.966 135.42 116.985 132.99 120.957 133.979C120.963 133.98 120.97 133.982 120.976 133.983C124.938 134.981 127.348 139.007 126.365 142.984C125.38 146.97 121.362 149.398 117.39 148.41C113.418 147.422 110.996 143.391 111.981 139.405ZM118.547 137.676L118.028 137.56L116.905 137.278L116.689 138.15C116.689 138.15 117.275 138.285 117.28 138.298C117.51 138.326 117.678 138.531 117.66 138.763L117.28 140.289C117.309 140.296 117.336 140.305 117.363 140.317L117.277 140.294L116.747 142.434C116.697 142.59 116.531 142.677 116.375 142.627L116.078 142.558C115.934 142.521 115.79 142.483 115.782 142.481L115.379 143.41L116.437 143.673L117.016 143.823L116.68 145.178L117.493 145.383L117.826 144.042C118.045 144.102 118.261 144.158 118.473 144.209L118.143 145.555L118.956 145.757L119.292 144.404C120.681 144.667 121.721 144.562 122.161 143.303C122.515 142.29 122.142 141.707 121.413 141.326C121.945 141.203 122.34 140.861 122.453 140.127L122.47 139.946C122.504 139.071 121.785 138.583 120.832 138.252L121.166 136.911L120.344 136.707L120.019 138.013C119.806 137.959 119.587 137.908 119.369 137.859L119.693 136.539L118.88 136.335L118.547 137.676ZM118.547 141.272C119.098 141.411 120.862 141.683 120.6 142.74C120.35 143.753 118.651 143.205 118.099 143.067L118.547 141.272ZM119.155 138.825C119.607 138.937 121.084 139.151 120.846 140.112H120.852C120.621 141.042 119.208 140.566 118.75 140.452L119.155 138.825Z" fill="white"/>
<path d="M131.054 146.297C131.487 146.299 131.912 146.188 132.29 145.977C132.679 145.768 133.021 145.482 133.295 145.135C133.581 144.769 133.805 144.359 133.96 143.92C134.123 143.467 134.206 142.989 134.205 142.508C134.231 142.019 134.127 141.532 133.904 141.098C133.705 140.761 133.335 140.589 132.797 140.589C132.563 140.597 132.331 140.629 132.103 140.684C131.82 140.747 131.558 140.884 131.343 141.079L130.116 146.227L130.313 146.265C130.371 146.279 130.431 146.288 130.491 146.293C130.568 146.302 130.645 146.306 130.723 146.304L131.054 146.297L131.054 146.297ZM133.492 138.249C134.028 138.237 134.56 138.347 135.048 138.57C135.472 138.772 135.844 139.069 136.136 139.437C136.436 139.817 136.657 140.254 136.785 140.721C136.925 141.237 136.994 141.769 136.991 142.304C136.99 143.966 136.348 145.564 135.199 146.762C134.641 147.335 133.979 147.794 133.247 148.114C132.479 148.453 131.649 148.626 130.811 148.621H130.218C129.896 148.61 129.574 148.582 129.255 148.537C128.865 148.48 128.478 148.403 128.097 148.305C127.697 148.21 127.309 148.071 126.939 147.891L130.193 134.216L133.099 133.751L131.941 138.605C132.182 138.495 132.432 138.408 132.689 138.342C132.953 138.278 133.225 138.246 133.497 138.247L133.492 138.25L133.492 138.249Z" fill="white"/>
<path d="M141.344 137.252C140.965 137.256 140.595 137.134 140.292 136.906C139.971 136.651 139.797 136.252 139.829 135.842C139.828 135.587 139.882 135.333 139.989 135.101C140.091 134.875 140.235 134.67 140.413 134.497C140.59 134.327 140.797 134.191 141.022 134.093C141.256 133.992 141.508 133.94 141.762 133.942C142.139 133.94 142.504 134.063 142.804 134.29C143.125 134.546 143.299 134.944 143.268 135.354C143.27 135.611 143.216 135.864 143.11 136.098C143.008 136.323 142.865 136.527 142.689 136.699C142.511 136.87 142.305 137.006 142.08 137.104C141.846 137.204 141.593 137.255 141.339 137.252H141.344V137.252ZM139.994 148.356H137.215L139.563 138.458H142.358L139.993 148.356H139.994Z" fill="white"/>
<path d="M144.791 135.993L147.697 135.543L146.975 138.458H150.087L149.526 140.754H146.44L145.615 144.206C145.544 144.471 145.5 144.742 145.483 145.015C145.466 145.236 145.499 145.458 145.578 145.665C145.656 145.851 145.799 146.001 145.981 146.086C146.243 146.202 146.529 146.255 146.815 146.239C147.108 146.24 147.4 146.211 147.688 146.153C147.977 146.097 148.262 146.019 148.54 145.921L148.748 148.068C148.349 148.211 147.942 148.33 147.528 148.423C147.017 148.532 146.495 148.583 145.972 148.574C145.108 148.574 144.441 148.444 143.964 148.188C143.518 147.961 143.161 147.589 142.95 147.133C142.745 146.65 142.655 146.125 142.689 145.6C142.72 144.985 142.807 144.373 142.95 143.774L144.791 135.984V135.993H144.791Z" fill="white"/>
<path d="M149.984 144.403C149.978 143.582 150.117 142.767 150.396 141.994C150.657 141.264 151.058 140.593 151.577 140.017C152.099 139.447 152.735 138.993 153.443 138.683C154.215 138.349 155.049 138.182 155.89 138.193C156.398 138.187 156.905 138.241 157.4 138.354C157.816 138.453 158.221 138.594 158.609 138.776L157.643 140.953C157.393 140.851 157.134 140.763 156.865 140.682C156.545 140.592 156.213 140.551 155.881 140.558C155.042 140.528 154.234 140.884 153.688 141.525C153.147 142.164 152.875 143.024 152.873 144.104C152.848 144.652 152.992 145.194 153.285 145.656C153.56 146.051 154.067 146.248 154.804 146.248C155.158 146.249 155.51 146.21 155.856 146.134C156.164 146.069 156.465 145.975 156.756 145.853L156.963 148.093C156.584 148.237 156.197 148.36 155.805 148.46C155.307 148.573 154.797 148.626 154.286 148.618C153.608 148.638 152.933 148.523 152.299 148.281C151.795 148.077 151.342 147.766 150.97 147.368C150.617 146.983 150.357 146.522 150.208 146.021C150.051 145.493 149.973 144.945 149.977 144.394L149.984 144.404V144.403Z" fill="white"/>
<path d="M163.694 140.568C163.303 140.562 162.92 140.687 162.606 140.923C162.288 141.17 162.021 141.478 161.821 141.827C161.601 142.199 161.435 142.602 161.33 143.022C161.228 143.424 161.175 143.837 161.173 144.253C161.148 144.76 161.251 145.265 161.472 145.721C161.673 146.072 162.034 146.249 162.56 146.249C162.952 146.255 163.336 146.129 163.648 145.891C163.967 145.644 164.234 145.337 164.436 144.987C164.653 144.615 164.814 144.212 164.915 143.793C165.016 143.389 165.069 142.975 165.072 142.559C165.098 142.052 164.995 141.547 164.773 141.091C164.572 140.742 164.208 140.566 163.685 140.566L163.694 140.568H163.694ZM162.305 148.621C161.715 148.634 161.128 148.532 160.578 148.318C160.114 148.135 159.701 147.846 159.369 147.473C159.043 147.097 158.797 146.658 158.647 146.183C158.483 145.651 158.404 145.096 158.415 144.538C158.417 143.771 158.539 143.009 158.779 142.28C159.011 141.547 159.374 140.861 159.848 140.257C160.325 139.652 160.918 139.15 161.592 138.779C162.317 138.388 163.13 138.19 163.954 138.205C164.54 138.194 165.124 138.297 165.672 138.507C166.136 138.688 166.552 138.973 166.887 139.341C167.212 139.718 167.457 140.157 167.608 140.631C167.773 141.164 167.851 141.72 167.839 142.278C167.837 143.044 167.717 143.806 167.485 144.536C167.257 145.271 166.901 145.959 166.434 146.569C165.964 147.176 165.373 147.679 164.699 148.044C163.963 148.438 163.139 148.636 162.305 148.621Z" fill="white"/>
<path d="M172.226 137.252C171.848 137.257 171.479 137.135 171.177 136.906C170.855 136.651 170.682 136.252 170.714 135.842C170.712 135.587 170.767 135.333 170.873 135.101C170.973 134.876 171.112 134.671 171.285 134.497C171.464 134.328 171.671 134.191 171.897 134.093C172.13 133.992 172.382 133.941 172.636 133.942C173.014 133.938 173.384 134.061 173.687 134.29C174.008 134.546 174.181 134.944 174.15 135.354C174.151 135.611 174.095 135.865 173.988 136.098C173.887 136.323 173.745 136.527 173.569 136.699C173.391 136.87 173.185 137.006 172.96 137.104C172.728 137.203 172.478 137.254 172.226 137.252L172.226 137.252ZM170.878 148.356H168.1L170.443 138.458H173.24L170.878 148.356Z" fill="white"/>
<path d="M175.242 138.909C175.453 138.849 175.687 138.774 175.937 138.693C176.187 138.612 176.479 138.537 176.8 138.461C177.153 138.385 177.51 138.329 177.868 138.291C178.313 138.244 178.761 138.221 179.209 138.224C180.672 138.224 181.682 138.65 182.238 139.504C182.57 140.015 182.739 140.639 182.743 141.375V141.428C182.74 141.907 182.669 142.432 182.529 143.005L181.253 148.348H178.466L179.704 143.116C179.778 142.791 179.839 142.475 179.883 142.166C179.931 141.899 179.931 141.625 179.883 141.358C179.837 141.134 179.714 140.935 179.535 140.793C179.288 140.631 178.994 140.555 178.699 140.577C178.328 140.578 177.958 140.616 177.595 140.691L175.775 148.358H172.971L175.242 138.909Z" fill="white"/>
<rect x="62.2479" y="0.911499" width="117.049" height="49.0986" rx="9.75" fill="white" fill-opacity="0.2" stroke="#949494" stroke-width="0.5"/>
<path fill-rule="evenodd" clip-rule="evenodd" d="M98.9432 28.9133C99.3816 29.1076 99.8612 29.1365 100.204 29.1365C101.217 29.1365 101.984 28.4968 101.984 26.2479C101.984 24.4844 101.354 23.9151 100.436 23.9151C99.8882 23.9151 99.4911 24.0684 98.9432 24.3732V28.9133ZM98.9576 23.346C99.3675 23.1245 100.066 22.8319 100.806 22.8319C102.504 22.8319 103.422 24.026 103.422 26.2479C103.422 28.8447 102.189 30.1082 100.204 30.1082C99.4777 30.1082 98.3548 29.8722 97.5326 29.4268V19.7356L98.9576 19.389V23.346ZM83.7182 22.9823H83.8144L85.6763 29.912H87.1554L89.3749 20.0671H87.7724L86.3752 27.413H86.2794L84.3756 20.0671H83.1563L81.3762 27.413H81.2804L79.7464 20.0671H78.2128L80.4316 29.912H81.9097L83.7182 22.9823ZM94.4564 25.7214H91.3208C91.4707 24.3335 92.1148 23.6811 92.9502 23.6811C93.6895 23.6811 94.3884 24.2638 94.4564 25.7214ZM95.5519 29.3881V28.3326C94.7991 28.7899 94.1145 29.0543 93.375 29.0542C91.9639 29.0542 91.2933 28.3181 91.2933 26.6523H95.758V26.1385C95.758 23.8757 94.7028 22.7502 92.9913 22.7502C90.9369 22.7502 89.8826 24.2777 89.8826 26.3892C89.8826 28.5828 90.8276 30.0269 93.1277 30.0269C94.1145 30.0269 94.9357 29.7489 95.5519 29.3881ZM109.654 27.8233H109.586L106.518 20.0613H104.861V29.9069H106.093V22.9361H106.216L109.011 29.9069H109.887L112.681 22.7692H112.805V29.9069H114.284V20.0613H112.585L109.654 27.8233ZM120.327 26.3887C120.327 24.5143 119.574 23.7232 118.643 23.7232C117.739 23.7232 116.958 24.5143 116.958 26.3887C116.958 28.2913 117.671 29.0542 118.643 29.0542C119.615 29.0542 120.327 28.2913 120.327 26.3887ZM115.521 26.3887C115.521 23.9579 116.836 22.7502 118.643 22.7502C120.451 22.7502 121.766 23.9579 121.766 26.3887C121.766 28.7626 120.519 30.0269 118.643 30.0269C116.767 30.0269 115.521 28.7626 115.521 26.3887ZM122.849 23.7785C123.465 23.403 124.767 22.7502 126.341 22.7502C127.984 22.7502 128.6 23.403 128.6 24.8329V29.8601H127.176V25.1526C127.176 24.0559 126.643 23.8615 125.944 23.8615C125.397 23.8615 124.697 24.1118 124.273 24.3617V29.8601H122.849V23.7785ZM134.75 25.7214H131.614C131.766 24.3335 132.409 23.6811 133.244 23.6811C133.984 23.6811 134.683 24.2638 134.75 25.7214ZM135.846 29.3881V28.3326C135.094 28.7899 134.408 29.0543 133.669 29.0542C132.259 29.0542 131.588 28.3181 131.588 26.6523H136.053V26.1385C136.053 23.8757 134.998 22.7502 133.285 22.7502C131.231 22.7502 130.177 24.2777 130.177 26.3892C130.177 28.5828 131.122 30.0269 133.422 30.0269C134.408 30.0269 135.23 29.7489 135.846 29.3881ZM143.207 22.7502H141.742L140.181 27.8599H140.099L138.346 22.7502H136.839L139.469 29.6921C139.14 30.7203 138.565 31.4705 137.633 31.4705V32.6083C139.208 32.6083 140.043 31.6085 140.728 29.6921L143.207 22.7502Z" fill="white"/>
<path d="M155.285 17.1857C156.66 17.1857 157.968 17.5056 159.142 18.0778C159.326 18.1622 159.511 18.2631 159.695 18.3642L158.89 19.0883L157.683 17.8256L155.604 19.6773L154.379 18.3471L150.555 21.7985L153.003 24.509L152.048 25.3506L154.463 28.0611L153.507 28.9023L156.962 32.7576L159.007 30.872L160.786 32.8928C160.433 33.1622 160.047 33.4321 159.629 33.6673C158.354 34.3912 156.878 34.8113 155.301 34.8113C150.454 34.8113 146.514 30.8558 146.514 25.9909C146.497 21.1589 150.438 17.1857 155.285 17.1857ZM153.674 25.4518L155.771 23.5661L157.649 25.6705L155.553 27.5559L153.674 25.4518ZM155.167 29.0883L157.247 27.186L159.142 29.2901L157.045 31.1759L155.167 29.0883ZM152.183 21.8661L154.278 19.9804L156.157 22.0847L154.06 23.9703L152.183 21.8661ZM156.022 20.8556L157.582 19.4416L158.991 21.0073L157.431 22.4381L156.022 20.8556ZM158.807 27.3372L160.366 25.923L161.775 27.5051L160.215 28.9202L158.807 27.3372ZM160.182 30.5194L161.742 29.1049L163.149 30.6705L161.59 32.1012L160.182 30.5194ZM160.819 23.2462L161.859 22.3034L162.798 23.3476L161.758 24.2901L160.819 23.2462ZM159.477 20.1317L160.517 19.1723L161.457 20.2328L160.416 21.1756L159.477 20.1317ZM162.144 26.361L163.183 25.4183L164.139 26.4621L163.083 27.4046L162.144 26.361ZM157.465 24.0208L159.025 22.6066L160.433 24.1721L158.874 25.5864L157.465 24.0208Z" fill="white"/>
<rect x="0.25" y="58.7769" width="117.049" height="49.0986" rx="9.75" fill="white" fill-opacity="0.2" stroke="#949494" stroke-width="0.5"/>
<path fill-rule="evenodd" clip-rule="evenodd" d="M47.5302 90.6498H43.6105L40.6713 79.1067C40.5318 78.5757 40.2356 78.1063 39.7999 77.885C38.7125 77.329 37.5142 76.8865 36.207 76.6634V76.219H42.5212C43.3927 76.219 44.0463 76.8865 44.1552 77.6619L45.6802 85.9883L49.598 76.219H53.4086L47.5302 90.6498ZM55.5865 90.6499H51.8848L54.9329 76.219H58.6347L55.5865 90.6499ZM63.4232 80.2167C63.5322 79.4395 64.1857 78.9951 64.9483 78.9951C66.1465 78.8835 67.4518 79.1067 68.5411 79.6607L69.1947 76.5537C68.1054 76.1093 66.9071 75.8861 65.8197 75.8861C62.2269 75.8861 59.6125 77.885 59.6125 80.6592C59.6125 82.7697 61.4644 83.8778 62.7715 84.5454C64.1857 85.2111 64.7304 85.6555 64.6215 86.3211C64.6215 87.3196 63.5322 87.764 62.4447 87.764C61.1376 87.764 59.8304 87.4312 58.6341 86.8752L57.9805 89.9842C59.2876 90.5382 60.7018 90.7614 62.009 90.7614C66.0376 90.8711 68.5411 88.8741 68.5411 85.8767C68.5411 82.1021 63.4232 81.8809 63.4232 80.2167ZM81.4977 90.6499L78.5585 76.219H75.4014C74.7478 76.219 74.0942 76.6634 73.8763 77.3291L68.4336 90.6499H72.2443L73.0049 88.5413H77.687L78.1228 90.6499H81.4977ZM75.9451 80.1052L77.0325 85.544H73.9844L75.9451 80.1052Z" fill="white"/>
</svg>
