<svg width="246" height="188" viewBox="0 0 246 188" fill="none" xmlns="http://www.w3.org/2000/svg">
<g clip-path="url(#clip0_19_252)">
<path d="M0 37.8H245.303" stroke="#434343" stroke-width="0.5"/>
<path d="M61.0024 187.6V0.599976" stroke="#434343" stroke-width="0.5"/>
<path d="M122.204 187.6V0.599976" stroke="#434343" stroke-width="0.5"/>
<path d="M183.405 187.6V0.599976" stroke="#434343" stroke-width="0.5"/>
<path d="M0 75.1998H245.303" stroke="#434343" stroke-width="0.5"/>
<path d="M0 112.6H245.303" stroke="#434343" stroke-width="0.5"/>
<path d="M0 150H245.303" stroke="#434343" stroke-width="0.5"/>
<path d="M27.3665 185.1H19.903V187.1H27.3665V185.1Z" fill="#2DBFA6"/>
<path d="M37.318 169.1H29.8544V185.1H37.318V169.1Z" fill="#2DBFA6"/>
<path d="M46.2742 157.1H40.3033V169.1H46.2742V157.1Z" fill="#2DBFA6"/>
<path d="M56.7234 137.1H49.2598V157.1H56.7234V137.1Z" fill="#2DBFA6"/>
<path d="M66.6748 137.1H59.2112V135.6H66.6748V137.1Z" fill="#2DBFA6"/>
<path d="M77.1237 135.6H69.6602V114.6H77.1237V135.6Z" fill="#2DBFA6"/>
<path d="M86.5777 114.6H79.6117V91.6H86.5777V114.6Z" fill="#2DBFA6"/>
<path d="M96.0316 91.6H89.5631V66.1H96.0316V91.6Z" fill="#2DBFA6"/>
<path d="M106.481 66.1H99.017V57.1H106.481V66.1Z" fill="#2DBFA6"/>
<path d="M102.998 75.6H102.5V0.599968H102.998V75.6Z" fill="#2DBFA6"/>
<path d="M132.354 56.1H131.857V39.1H132.354V56.1Z" fill="#2DBFA6"/>
<path d="M192.063 110.6H191.566V93.6H192.063V110.6Z" fill="#2DBFA6"/>
<path d="M115.935 65.1H108.969V60.6H115.935V65.1Z" fill="#FD6A76"/>
<path d="M125.388 60.6H119.417V56.1H125.388V60.6Z" fill="#2DBFA6"/>
<path d="M135.837 56.1H128.374V51.6H135.837V56.1Z" fill="#2DBFA6"/>
<path d="M145.789 42.1H138.325V51.6H145.789V42.1Z" fill="#2DBFA6"/>
<path d="M155.243 43.6H148.774V53.1H155.243V43.6Z" fill="#FD6A76"/>
<path d="M165.194 53.1H158.228V67.6H165.194V53.1Z" fill="#FD6A76"/>
<path d="M175.146 67.6H167.682V82.1H175.146V67.6Z" fill="#FD6A76"/>
<path d="M185.595 82.1H178.131V99.1H185.595V82.1Z" fill="#FD6A76"/>
<path d="M195.546 0.599976H188.083V99.1H195.546V0.599976Z" fill="#2DBFA6"/>
<path d="M204.502 1.59998H198.531V7.09998H204.502V1.59998Z" fill="#FD6A76"/>
<path d="M214.952 5.59998H207.488V7.09998H214.952V5.59998Z" fill="#2DBFA6"/>
<path d="M224.903 5.59998H217.439V7.09998H224.903V5.59998Z" fill="#2DBFA6"/>
</g>
<defs>
<clipPath id="clip0_19_252">
<rect width="246" height="188" fill="white"/>
</clipPath>
</defs>
</svg>
