<svg width="70" height="56" fill="none" xmlns="http://www.w3.org/2000/svg"><path d="M61.233 55.176V14.494c.055-1.318.11-2.608.165-3.87a24.918 24.918 0 0 1-5.873 4.858 26.02 26.02 0 0 1-6.782 2.8l-1.323-7.74c1.102-.166 2.37-.55 3.804-1.154A38.713 38.713 0 0 0 55.608 7a30.635 30.635 0 0 0 4.136-2.965c1.268-1.098 2.233-2.168 2.895-3.212H70v54.353h-8.767ZM20.513 56c-6.507 0-11.553-2.388-15.137-7.165C1.792 44.06 0 37.114 0 28S1.792 11.941 5.376 7.165C8.96 2.388 14.006 0 20.513 0c6.451 0 11.469 2.388 15.053 7.165 3.64 4.776 5.46 11.721 5.46 20.835s-1.82 16.059-5.46 20.835C31.982 53.612 26.964 56 20.513 56Zm0-7.412c3.75 0 6.589-1.702 8.519-5.106 1.93-3.404 2.895-8.564 2.895-15.482 0-6.918-.965-12.078-2.895-15.482-1.93-3.404-4.77-5.106-8.52-5.106-3.804 0-6.671 1.702-8.601 5.106C10.036 15.922 9.098 21.082 9.098 28c0 6.918.938 12.078 2.813 15.482 1.93 3.404 4.797 5.106 8.602 5.106Z" fill="#fff"/></svg>