<svg width="88" height="56" fill="none" xmlns="http://www.w3.org/2000/svg"><path d="M51.18 55.176v-6.423c4.887-3.569 9.033-6.78 12.438-9.635 3.404-2.91 6.15-5.573 8.237-7.989 2.087-2.415 3.624-4.721 4.613-6.917.988-2.251 1.483-4.502 1.483-6.753 0-2.91-.88-5.27-2.636-7.082-1.703-1.867-4.092-2.8-7.167-2.8-3.185 0-5.739 1.152-7.66 3.458-1.868 2.251-2.939 5.38-3.213 9.389l-7.743-3.377c.33-3.514 1.29-6.533 2.883-9.059a16.352 16.352 0 0 1 6.59-5.93C61.805.687 65.018 0 68.642 0c3.954 0 7.304.769 10.05 2.306 2.746 1.537 4.805 3.596 6.178 6.176 1.428 2.58 2.142 5.463 2.142 8.647 0 3.46-.852 6.808-2.554 10.047-1.702 3.24-4.338 6.534-7.908 9.883-3.57 3.349-8.182 6.945-13.838 10.788v.082a35.283 35.283 0 0 1 2.635-.082 61.156 61.156 0 0 1 3.213-.082 56.375 56.375 0 0 1 2.718-.083H88v7.494H51.18ZM20.429 56c-6.48 0-11.505-2.388-15.075-7.165C1.784 44.06 0 37.114 0 28S1.785 11.941 5.354 7.165C8.924 2.388 13.95 0 20.43 0 26.854 0 31.85 2.388 35.42 7.165 39.045 11.94 40.857 18.886 40.857 28s-1.812 16.059-5.437 20.835C31.851 53.612 26.854 56 20.43 56Zm0-7.412c3.734 0 6.562-1.702 8.484-5.106 1.922-3.404 2.883-8.564 2.883-15.482 0-6.918-.96-12.078-2.883-15.482-1.922-3.404-4.75-5.106-8.484-5.106-3.79 0-6.645 1.702-8.567 5.106-1.867 3.404-2.8 8.564-2.8 15.482 0 6.918.933 12.078 2.8 15.482 1.922 3.404 4.777 5.106 8.567 5.106Z" fill="#fff"/></svg>