<svg width="86" height="56" fill="none" xmlns="http://www.w3.org/2000/svg"><path d="M67.397 56c-4.994 0-9.302-1.124-12.924-3.371-3.621-2.303-6.118-5.51-7.49-9.622l8.56-3.947c.66 3.015 1.949 5.345 3.87 6.99 1.975 1.645 4.664 2.467 8.066 2.467 3.019 0 5.35-.85 6.997-2.55 1.701-1.699 2.552-3.919 2.552-6.66 0-1.81-.357-3.29-1.07-4.44-.659-1.207-1.674-2.084-3.046-2.632-1.317-.603-3.018-.905-5.104-.905-.603 0-1.262.028-1.975.083-.659 0-1.344.055-2.058.164v-7.154c.494.055.96.082 1.4.082h1.399c3.292 0 5.68-.712 7.161-2.138 1.482-1.425 2.223-3.646 2.223-6.66 0-2.632-.769-4.633-2.305-6.004-1.537-1.425-3.65-2.138-6.338-2.138-2.8 0-5.049.713-6.75 2.138-1.646 1.426-2.854 3.454-3.622 6.086l-8.067-3.29c.768-2.522 2.03-4.714 3.787-6.578 1.756-1.864 3.923-3.317 6.503-4.359C61.745.521 64.597 0 67.725 0c3.787 0 6.942.63 9.466 1.891 2.525 1.261 4.418 2.988 5.68 5.18 1.317 2.139 1.976 4.606 1.976 7.402 0 2.083-.302 3.92-.906 5.51-.603 1.534-1.4 2.85-2.387 3.947-.988 1.096-2.058 1.946-3.21 2.549-1.153.603-2.278 1.014-3.375 1.233v.165c1.427.055 2.771.356 4.033.904a10.898 10.898 0 0 1 3.54 2.385c1.042.987 1.866 2.193 2.47 3.618.658 1.425.987 3.07.987 4.934 0 3.234-.823 6.085-2.47 8.552-1.59 2.412-3.786 4.304-6.585 5.674C74.202 55.314 71.02 56 67.397 56ZM20.414 56c-6.475 0-11.497-2.385-15.064-7.154C1.783 44.076 0 37.142 0 28.04c0-9.1 1.783-16.035 5.35-20.805C8.917 2.467 13.94.082 20.414.082c6.42 0 11.414 2.385 14.981 7.154 3.622 4.77 5.433 11.705 5.433 20.805s-1.81 16.035-5.433 20.805C31.828 53.616 26.835 56 20.414 56Zm0-7.4c3.732 0 6.558-1.7 8.478-5.1 1.921-3.398 2.881-8.551 2.881-15.459 0-6.907-.96-12.06-2.88-15.46-1.921-3.398-4.747-5.098-8.479-5.098-3.786 0-6.64 1.7-8.56 5.099-1.866 3.398-2.8 8.552-2.8 15.46 0 6.907.934 12.06 2.8 15.459 1.92 3.399 4.774 5.098 8.56 5.098Z" fill="#fff"/></svg>