<svg width="600" height="600" fill="none" xmlns="http://www.w3.org/2000/svg"><path d="m442.453 251.318 28.086 40.009-156.39 107.586-78.194-66.235-16.754-14.21-13.251 12.869L0 531.475l216.581-152.993 72.742 84.349 16.236 18.815 25.314-15.339 176.494-122.528 26.044 37.112L600 237.29l-157.547 14.028Z" fill="url(#a)"/><mask id="b" style="mask-type:luminance" maskUnits="userSpaceOnUse" x="33" y="68" width="471" height="369"><path d="m204.331 303.156 13.89-13.478 14.744 12.503 16.753 14.18 65.736 55.714 125.197-86.118-15.535-22.383-21.323-30.251 36.797-3.263 62.538-5.489a243.312 243.312 0 0 0-54.101-84.197 242.976 242.976 0 0 0-83.392-55.254 242.753 242.753 0 0 0-195.59 7.267 243.043 243.043 0 0 0-79.07 61.29 243.344 243.344 0 0 0-47.719 87.98 243.515 243.515 0 0 0-8.283 99.768 243.437 243.437 0 0 0 32.555 94.659L191.08 316.056l13.251-12.9Z" fill="#fff"/></mask><g mask="url(#b)"><path d="M136.943 111.378c92.078-64.46 218.812-57.626 303.541 20.503-1.722-.776-3.301-1.091-4.699-.864-21.323 3.05-8.316 25.128 7.31 21.347 1.737 2.531 1.463 6.953 2.103 10.063-15.231-1.921-22.298.976-30.675 12.9-26.775 1.616.7 17.199-13.311 21.102-25.04-10.063-32.686 23.909-7.738 24.397 22.419-.244 9.931-20.401 43.53-27.263-1.949 8.234 32.593 18.632 12.367 20.797-3.656 12.198 22.297.671 7.006-11.892a13.716 13.716 0 0 1-10.874-13.815c15.656-2.683 22.083 11.924 25.617 24.213 6.854 9.148 8.407.58 10.722-6.099 2.163-4.238 8.286-3.781 7.281 1.677 21.672 29.798 2.377-12.242-19.928-45.087a241.704 241.704 0 0 1 39.863 78.616l-.013-.045c-13.19 5.611-28.086-16.65-38.199-5.55-3.899 11.222-11.119-.214-18.277.274-28.298-2.44 5.452-30.495-47.764-11.009-37.619-4.604-21.323 15.888-43.712 30.892-30.461 13.662 4.051 17.809-12.885 29.306-3.351 18.48 14.592 47.023 33.721 45.467 21.932-6.952 36.158-3.75 56.749 1.556-4.691 16.681 1.737 30.495 11.332 43.395 10.357 13.265-10.935 22.627-3.045 35.892 5.147 2.745 6.549 7.136 6.335 12.808-2.406 14.607 11.057 25.311 10.844 39.826.74-.871 1.473-1.749 2.199-2.634a245.73 245.73 0 0 1-18.537 20.784c-94.894 94.998-248.747 94.998-343.641 0-76.557-76.64-91.35-191.698-44.382-283.186-5.764 16.114-6.329 32.758 1.447 49.223.457 8.844 10.875 21.926 17.638 19.609.853-10.765-11.606-17.108-9.93-28.422-2.194-6.77 6.487-5.58 5.695.61.732 9.484 7.555 15.918 11.423 23.969 7.433 8.813-2.527 23.908 17.151 26.195 6.305 5.611 21.657-3.262 21.627 4.514 2.741 7.319 14.287 4.452 19.496 9.148 11.179 22.932 28.237 9.789 31.679 20.706 7.128 15.248-15.017 15.522-11.27 30.19-5.757 12.869 2.832 21.622 11.636 30.008 5.635 14.637 14.377 15.43 25.648 24.884 7.889 11.283 1.097 29.945 3.29 43.79 10.479 5.733-4.355 22.048 8.255 31.013 3.594 3.904 2.102 10.704 0 16.132 1.249 12.503 11.15 24.122 19.191 32.325 4.418 7.502 32.289 9.149 17.972-1.738-11.24-5.581 2.62-18.633-8.072-22.018-5.453-1.646-6.366-5.031-1.797-9.331 6.458-5.397-5.209-5.611-3.046-10.582 1.706-3.049 5.178-1.586 7.92-1.952 12.855-4.3 21.323-14.851 27.842-27.445 5.33-3.995 9.473-8.112 7.066-16.102-10.265-24.608 27.141-8.294 27.172-30.738-4.356-20.218 21.841-42.053 11.271-45.56-19.161-19.974-22.938-7.806-46.18-17.199-10.6-3.05-2.132-22.444-14.529-24.396-17.912 6.251-16.45-19.974-30.462-15.826-6.58 3.933-12.702 4.299-18.581-2.349-20.044-15.918-20.593 15.613-47.399 6.587-5.117-12.991 3.625-25.342-16.358-26.165-1.005-4.849 8.102-9.637 3.32-14.546-9.321 0-16.723 14.332-29.059 9.85-17.546-19.334 12.183-44.766 33.019-40.253 16.784-2.531 10.784 3.903 20.593 12.716 9.595-1.647-3.716-19.943 19.098-25.951 7.342-3.354 5.941-13.814 12.886-16.254 8.194-14.21 26.258-19.029 35.884-32.507 3.046-.427 6.092 3.049 9.352 0-11.484-4.453-7.311-15.248 3.045-9.149 6.093 7.136 11.668-.397 18.278-.458 1.949 4.117-5.88 7.35-1.828 10.796 4.173 1.982 13.006 7.471 15.87 2.317-.975-3.872-4.082-5.215-7.311-6.648-10.173-5.032 7.432-6.373 4.692-13.691-19.648-17.688-.001-26.165-19.527-17.993-16.296 6.739 5.392-17.626-27.415-11.832-7.98 6.099 2.193 20.493-10.296 22.475-9.443-.244-6.915 13.753-15.474 12.685-3.046-1.311-1.95-4.147-1.706-6.586.822-9.85-10.327-5.642-15.81-10.002-19.708-16.834 29.396-28.849 40.058-25.19.365-2.165-3.564-5.427 0-5.732 8.377-2.074 13.92-11.497 24.094-9.149 16.876 2.135 6.885 9.149-2.131 12.869-6.58 4.697 15.9 8.691 19.799 6.099.396-5.58 4.356-6.099 9.138-5.764 4.783.336 8.012-7.928 1.524-8.263-2.59-.824-2.254-3.233-2.285-5.49-7.828-13.356-35-19.059-47.063-6.983-1.127 4.056 3.046 12.472-6.732 10.825-10.387-5.367.975-11.038 2.407-15.826-6.092.457-13.007-.916-18.491.518-4.69 8.264 1.675 3.782 3.046 8.477 0 3.049-3.258 4.696-5.634 5.367-8.225 1.586-26.928 11.345-22.938-4.726 7.615 1.006 17.484-1.921 18.276-10.002-5.513-2.745-6.336 3.507-9.748 5.001-13.159 3.933-14.499-13.48-27.994-9.484a18.576 18.576 0 0 0-13.676 8.784c2.619 3.048 8.497-.001 9.869 3.047.274 1.8-1.919 7.106.579 6.1 3.655-2.074 17.485 1.007 10.265 5.489-12.996 3.452-25.507-13.389-38.609-8.387Zm382.023 197.508c.295 35.454-7.103 70.958-22.197 103.79 14.458-32.067 22.233-68.079 22.197-103.79ZM241.865 191.365c-.34.03-.669.136-.962.311a2.287 2.287 0 0 0-1.016 2.649v.092c0 2.866 4.844 2.469 4.448-.489a2.29 2.29 0 0 0-2.47-2.563Zm17.365-1.096c7.737.58-1.401-7.196-2.101-.304v.091c-15.901-1.006 1.705 11.832 2.101.213Zm153.678-24.761c-9.565-4.728-10.6-32.599-21.018-12.656 24.095 11.314-12.184 19.883 12.885 21.225 4.843.976 16.114-5.428 8.133-8.569Zm-24.217-9.271c-3.533 1.799-7.158 3.446-8.712 7.624-7.432 18.571 28.603-4.178 8.712-7.624Zm-258.927-39.636c-7.734 6.219-15.75 13.014-23.529 20.267a245.064 245.064 0 0 1 23.529-20.267Z" fill="url(#c)"/></g><defs><linearGradient id="a" x1="300" y1="237.29" x2="380.145" y2="517.412" gradientUnits="userSpaceOnUse"><stop stop-color="#EDB326"/><stop offset="1" stop-color="#F4B741"/></linearGradient><linearGradient id="c" x1="275.985" y1="67.667" x2="494.269" y2="441.333" gradientUnits="userSpaceOnUse"><stop stop-color="#EDB326"/><stop offset="1" stop-color="#F4B741"/></linearGradient></defs></svg>