<svg width="30" height="30" fill="none" xmlns="http://www.w3.org/2000/svg"><rect x=".25" y=".25" width="29.5" height="29.5" rx="14.75" stroke="#fff" stroke-opacity=".15" stroke-width=".5"/><path d="M10.271 10.181h2.652l.854 2.137-1.372.915a.59.59 0 0 0-.263.492c.001.055 0 0 0 0v.032l.003.06c.003.048.01.114.02.194.024.16.068.38.155.639.173.519.513 1.192 1.176 1.854.662.663 1.335 1.003 1.854 1.176.26.087.479.131.639.154a2.677 2.677 0 0 0 .254.024h.031s.067-.003.002 0a.59.59 0 0 0 .528-.326l.395-.791 2.62.437v2.55c-1.247.181-4.614.359-7.26-2.287s-2.468-6.013-2.288-7.26Zm3.095 3.83 1.067-.71c.464-.31.649-.903.441-1.422l-.854-2.137A1.181 1.181 0 0 0 12.923 9H10.24a1.13 1.13 0 0 0-1.13.955c-.2 1.324-.472 5.235 2.614 8.321 3.086 3.086 6.997 2.814 8.321 2.613A1.13 1.13 0 0 0 21 19.76v-2.581c0-.578-.417-1.07-.987-1.165l-2.62-.437a1.18 1.18 0 0 0-1.25.637l-.205.41a2.763 2.763 0 0 1-.214-.063c-.366-.122-.875-.372-1.393-.89-.519-.52-.769-1.028-.891-1.394a2.71 2.71 0 0 1-.074-.264Z" fill="#fff"/></svg>