<svg width="480" height="83" fill="none" xmlns="http://www.w3.org/2000/svg"><path d="m78.953 32.828 5.012 7.165L56.058 59.26 42.105 47.4l-2.99-2.545-2.364 2.304L0 83l38.648-27.399 12.98 15.106 2.897 3.37 4.517-2.748 31.494-21.942 4.648 6.646 11.882-25.717-28.113 2.512Z" fill="url(#a)"/><mask id="b" style="mask-type:luminance" maskUnits="userSpaceOnUse" x="5" y="0" width="85" height="66"><path d="M36.462 42.112 38.94 39.7l2.631 2.239 2.99 2.54 11.73 9.977 22.34-15.423-2.772-4.008-3.805-5.418 6.567-.584 11.159-.983a43.588 43.588 0 0 0-9.654-15.078 43.345 43.345 0 0 0-14.88-9.895 43.18 43.18 0 0 0-34.902 1.301 43.388 43.388 0 0 0-14.11 10.976A43.627 43.627 0 0 0 7.719 31.1 43.759 43.759 0 0 0 6.24 48.966a43.7 43.7 0 0 0 5.809 16.952l22.047-21.495 2.364-2.31Z" fill="#fff"/></mask><g mask="url(#b)"><path d="M24.44 7.765C40.868-3.772 63.47-2.547 78.589 11.434c-.302-.135-.58-.19-.826-.15-3.805.546-1.484 4.5 1.305 3.823.31.454.26 1.245.375 1.802-2.718-.344-3.979.175-5.474 2.31-4.778.29.125 3.081-2.376 3.78-4.468-1.802-5.832 4.28-1.38 4.368 4-.044 1.772-3.653 7.767-4.882-.347 1.475 5.816 3.337 2.207 3.725-.652 2.184 3.979.12 1.25-2.13a2.445 2.445 0 0 1-1.416-.884 2.466 2.466 0 0 1-.524-1.59c2.794-.48 3.94 2.135 4.57 4.336 1.224 1.639 1.502.104 1.915-1.092.386-.76 1.478-.677 1.299.3 3.862 5.33.432-2.17-3.541-8.048a43.345 43.345 0 0 1 7.094 14.044c-2.353 1.004-5.01-2.981-6.815-.994-.696 2.01-1.983-.037-3.26.05-5.05-.437.972-5.461-8.524-1.972-6.713-.824-3.805 2.846-7.8 5.533-5.436 2.446.722 3.189-2.3 5.248-.598 3.31 2.604 8.42 6.018 8.142 3.913-1.245 6.452-.672 10.127.279-.837 2.987.309 5.461 2.021 7.771 1.848 2.376-1.951 4.052-.544 6.428.919.491 1.17 1.278 1.131 2.294-.429 2.615 1.974 4.532 1.936 7.132.108-.128.214-.258.32-.387a44.001 44.001 0 0 1-3.236 3.639c-16.933 17.012-44.387 17.012-61.32 0C4.93 60.589 2.29 39.993 10.66 23.612c-1.023 2.88-1.12 5.854.264 8.796.082 1.584 1.941 3.927 3.148 3.512.152-1.928-2.072-3.064-1.773-5.09-.391-1.212 1.158-1 1.017.11.13 1.698 1.348 2.85 2.038 4.291 1.326 1.579-.45 4.282 3.06 4.692 1.126 1.004 3.865-.584 3.86.807.49 1.311 2.549.798 3.478 1.64 1.995 4.106 5.04 1.752 5.654 3.707 1.272 2.73-2.68 2.78-2.012 5.406-1.027 2.305.506 3.873 2.077 5.374 1.006 2.622 2.565 2.764 4.576 4.456 1.408 2.021.196 5.364.587 7.843 1.87 1.027-.776 3.948 1.474 5.554.641.699.375 1.917 0 2.889.223 2.239 1.99 4.32 3.425 5.789.788 1.343 5.761 1.638 3.207-.312-2.006-1 .466-3.336-1.44-3.942-.974-.295-1.137-.901-.322-1.671 1.152-.967-.929-1.005-.543-1.896.304-.545.924-.284 1.413-.35 2.294-.77 3.805-2.659 4.968-4.914.951-.716 1.69-1.453 1.262-2.883-1.832-4.407 4.841-1.486 4.847-5.505-.777-3.62 3.898-7.531 2.012-8.16-3.419-3.576-4.093-1.397-8.24-3.08-1.892-.545-.381-4.019-2.593-4.368-3.196 1.12-2.935-3.577-5.436-2.834-1.174.704-2.267.77-3.316-.421-3.577-2.85-3.675 2.796-8.458 1.18-.913-2.327.647-4.539-2.919-4.686-.18-.868 1.446-1.726.593-2.606-1.663 0-2.984 2.568-5.186 1.765-3.13-3.462 2.175-8.017 5.893-7.209 2.994-.453 1.924.7 3.674 2.277 1.712-.295-.663-3.571 3.408-4.647 1.31-.6 1.06-2.474 2.3-2.911 1.462-2.545 4.685-3.408 6.403-5.822.543-.076 1.087.546 1.668 0-2.049-.797-1.304-2.73.544-1.638 1.087 1.278 2.082-.07 3.262-.081.347.737-1.05 1.315-.326 1.932.744.355 2.32 1.338 2.831.415-.173-.693-.728-.933-1.304-1.19-1.816-.901 1.326-1.141.837-2.452-3.506-3.168 0-4.685-3.485-3.222-2.907 1.207.962-3.156-4.891-2.119-1.424 1.092.39 3.67-1.838 4.024-1.685-.043-1.234 2.464-2.76 2.273-.544-.235-.35-.743-.306-1.18.147-1.764-1.842-1.01-2.82-1.79-3.518-3.015 5.245-5.167 7.148-4.511.065-.388-.636-.973 0-1.028 1.494-.371 2.483-2.058 4.298-1.638 3.012.383 1.23 1.638-.38 2.304-1.174.841 2.838 1.557 3.534 1.093.07-1 .777-1.092 1.63-1.032.854.06 1.43-1.42.272-1.48-.462-.148-.403-.58-.408-.983-1.397-2.392-6.245-3.413-8.398-1.251-.2.726.544 2.233-1.2 1.938-1.854-.96.172-1.976.428-2.834-1.087.082-2.32-.163-3.299.093-.837 1.48.299.678.543 1.519 0 .546-.58.84-1.005.96-1.467.285-4.806 2.032-4.094-.846 1.36.18 3.12-.344 3.262-1.791-.983-.491-1.13.628-1.74.895-2.347.705-2.587-2.413-4.994-1.698a3.308 3.308 0 0 0-2.442 1.573c.468.546 1.517 0 1.762.546.049.323-.342 1.272.104 1.092.652-.37 3.119.18 1.83.984-2.316.617-4.547-2.394-6.883-1.505Zm68.164 35.52a43.767 43.767 0 0 1-3.894 18.29c2.518-5.662 3.88-12 3.894-18.29ZM43.158 22.091a.406.406 0 0 0-.302.18.415.415 0 0 0-.05.35v.016c0 .513.864.442.793-.087a.413.413 0 0 0-.262-.435.41.41 0 0 0-.18-.024Zm3.1-.197c1.38.104-.252-1.288-.377-.054v.016c-2.836-.18.306 2.119.376.038Zm27.422-4.434c-1.707-.846-1.892-5.838-3.75-2.267 4.299 2.026-2.175 3.562 2.298 3.802.864.175 2.876-.973 1.452-1.535ZM69.36 15.8c-.63.322-1.277.617-1.555 1.365-1.326 3.326 5.103-.748 1.555-1.365ZM23.073 8.77a76.362 76.362 0 0 0-3.98 3.432 43.744 43.744 0 0 1 3.98-3.433Z" fill="url(#c)"/></g><path d="M479.999 51.94h-6.241l-5.182-8.844-5.107 8.845h-6.014l8.322-12.68-7.755-12.375h6.204l4.766 8.428 4.804-8.428h5.749l-7.792 12.224 8.246 12.83Z" fill="url(#d)"/><path d="M453.154 31.1H440.18v6.377h10.288v4.252H440.18v10.212h-5.258V26.886h18.232V31.1Z" fill="url(#e)"/><path d="M396.579 51.94V32.96h4.652l.19 3.53c.605-1.29 1.462-2.265 2.572-2.923 1.109-.658 2.332-.987 3.669-.987 1.362 0 2.585.317 3.669.95 1.11.632 1.916 1.594 2.421 2.884.378-.86.895-1.569 1.551-2.125a6.77 6.77 0 0 1 2.269-1.291 8.29 8.29 0 0 1 2.572-.418c1.236 0 2.346.254 3.329.76.984.506 1.778 1.265 2.383 2.277.605 1.013.908 2.29.908 3.835V51.94h-5.22V40.514c0-1.366-.303-2.34-.908-2.923-.605-.607-1.374-.91-2.307-.91-.757 0-1.438.19-2.043.569-.605.38-1.097.949-1.475 1.708-.353.734-.53 1.632-.53 2.695v10.288h-5.22V40.514c0-1.366-.302-2.34-.907-2.923-.606-.607-1.362-.91-2.27-.91-.681 0-1.336.176-1.967.53-.63.355-1.147.912-1.551 1.671-.378.76-.567 1.746-.567 2.961v10.098h-5.22Z" fill="url(#f)"/><path d="M383.315 39.793c0-1.063-.29-1.898-.87-2.505-.555-.633-1.324-.95-2.308-.95-.958 0-1.777.241-2.458.722-.681.48-1.173 1.29-1.475 2.43l-4.388-1.33c.403-1.695 1.324-3.049 2.761-4.061s3.379-1.519 5.825-1.519c1.665 0 3.102.266 4.312.798 1.211.506 2.144 1.278 2.799 2.315.681 1.038 1.022 2.329 1.022 3.872v7.707c0 .986.441 1.48 1.324 1.48.201 0 .403-.013.605-.038.227-.025.416-.063.567-.114l-.302 3.189a4.02 4.02 0 0 1-1.059.342c-.404.075-.87.114-1.4.114-.857 0-1.639-.14-2.345-.418a3.741 3.741 0 0 1-1.627-1.367c-.378-.632-.567-1.43-.567-2.391v-.304l.719-.152c-.101 1.038-.48 1.91-1.135 2.62a6.148 6.148 0 0 1-2.421 1.594 9.253 9.253 0 0 1-3.026.493c-1.816 0-3.304-.443-4.464-1.328-1.134-.886-1.702-2.177-1.702-3.872 0-1.342.416-2.468 1.249-3.379.832-.911 2.105-1.544 3.82-1.898l7.111-1.518v3.074l-4.35.911c-.857.178-1.513.443-1.967.798-.454.354-.681.873-.681 1.556 0 .658.227 1.164.681 1.519.479.354 1.085.531 1.816.531a5.75 5.75 0 0 0 1.475-.19c.479-.152.895-.38 1.248-.683a3.31 3.31 0 0 0 .87-1.177c.227-.48.341-1.05.341-1.708v-5.163Z" fill="url(#g)"/><path d="M360.923 27.152v18.525c0 .962.227 1.658.68 2.088.454.43 1.085.645 1.892.645.605 0 1.134-.088 1.588-.265.454-.203.87-.456 1.249-.76l.756 3.417c-.605.456-1.349.822-2.232 1.1a9.12 9.12 0 0 1-2.761.418c-1.916 0-3.455-.43-4.615-1.29-1.16-.886-1.74-2.38-1.74-4.48V28.595l5.183-1.443Zm5.863 5.808v3.872h-14.374V32.96h14.374Z" fill="url(#h)"/><path d="M341.118 39.793c0-1.063-.29-1.898-.87-2.505-.555-.633-1.324-.95-2.308-.95-.958 0-1.777.241-2.458.722-.681.48-1.173 1.29-1.475 2.43l-4.388-1.33c.403-1.695 1.324-3.049 2.761-4.061s3.379-1.519 5.825-1.519c1.665 0 3.102.266 4.312.798 1.211.506 2.144 1.278 2.799 2.315.681 1.038 1.022 2.329 1.022 3.872v7.707c0 .986.441 1.48 1.324 1.48.201 0 .403-.013.605-.038.227-.025.416-.063.567-.114l-.302 3.189a4.02 4.02 0 0 1-1.059.342c-.404.075-.87.114-1.4.114-.857 0-1.639-.14-2.345-.418a3.741 3.741 0 0 1-1.627-1.367c-.378-.632-.567-1.43-.567-2.391v-.304l.719-.152c-.101 1.038-.48 1.91-1.135 2.62a6.148 6.148 0 0 1-2.421 1.594 9.253 9.253 0 0 1-3.026.493c-1.816 0-3.304-.443-4.464-1.328-1.134-.886-1.702-2.177-1.702-3.872 0-1.342.416-2.468 1.249-3.379.832-.911 2.105-1.544 3.82-1.898l7.111-1.518v3.074l-4.35.911c-.857.178-1.513.443-1.967.798-.454.354-.681.873-.681 1.556 0 .658.227 1.164.681 1.519.479.354 1.085.531 1.816.531a5.75 5.75 0 0 0 1.475-.19c.479-.152.895-.38 1.248-.683a3.31 3.31 0 0 0 .87-1.177c.227-.48.341-1.05.341-1.708v-5.163Z" fill="url(#i)"/><path d="M321.464 24.684v21.373c0 .81.126 1.417.378 1.822s.732.607 1.438.607c.378 0 .693-.025.945-.076.278-.05.593-.151.946-.303l-.378 3.416c-.404.228-.933.418-1.589.57a8.232 8.232 0 0 1-1.853.227c-1.942 0-3.279-.506-4.01-1.518-.731-1.012-1.097-2.404-1.097-4.176V24.684h5.22Z" fill="url(#j)"/><path d="M278.32 51.94V32.96h4.652l.189 3.53c.606-1.29 1.463-2.265 2.573-2.923 1.109-.658 2.332-.987 3.669-.987 1.361 0 2.584.317 3.669.95 1.109.632 1.916 1.594 2.421 2.884.378-.86.895-1.569 1.55-2.125a6.775 6.775 0 0 1 2.27-1.291 8.286 8.286 0 0 1 2.572-.418c1.236 0 2.345.254 3.329.76.983.506 1.778 1.265 2.383 2.277.605 1.013.908 2.29.908 3.835V51.94h-5.22V40.514c0-1.366-.303-2.34-.908-2.923-.605-.607-1.374-.91-2.307-.91-.757 0-1.438.19-2.043.569-.605.38-1.097.949-1.475 1.708-.353.734-.53 1.632-.53 2.695v10.288h-5.22V40.514c0-1.366-.302-2.34-.908-2.923-.605-.607-1.361-.91-2.269-.91a3.96 3.96 0 0 0-1.967.53c-.631.355-1.147.912-1.551 1.671-.378.76-.567 1.746-.567 2.961v10.098h-5.22Z" fill="url(#k)"/><path d="M259.087 52.32c-1.235 0-2.345-.227-3.328-.683-.984-.455-1.766-1.177-2.346-2.164-.554-.987-.832-2.29-.832-3.91V32.96h5.22v11.35c0 1.316.252 2.303.757 2.962.529.632 1.387.949 2.572.949a3.85 3.85 0 0 0 1.513-.304 3.392 3.392 0 0 0 1.248-.911c.378-.405.668-.924.87-1.557.202-.632.303-1.366.303-2.201V32.96h5.22v18.98h-4.653l-.151-3.416a7.018 7.018 0 0 1-1.551 2.126 5.957 5.957 0 0 1-2.118 1.253c-.807.278-1.715.417-2.724.417Z" fill="url(#l)"/><path d="M240.821 27.152v18.525c0 .962.226 1.658.68 2.088.454.43 1.085.645 1.892.645.605 0 1.134-.088 1.588-.265.454-.203.87-.456 1.249-.76l.756 3.417c-.605.456-1.349.822-2.232 1.1a9.12 9.12 0 0 1-2.761.418c-1.916 0-3.455-.43-4.615-1.29-1.16-.886-1.74-2.38-1.74-4.48V28.595l5.183-1.443Zm5.863 5.808v3.872H232.31V32.96h14.374Z" fill="url(#m)"/><path d="M208.874 51.94V32.96h4.652l.303 5.808-.605-.607c.428-1.848 1.248-3.24 2.458-4.176 1.211-.936 2.673-1.405 4.388-1.405 1.286 0 2.421.266 3.405.798.983.506 1.752 1.265 2.307 2.277.58 1.013.87 2.278.87 3.797V51.94h-5.22V40.894c0-1.544-.303-2.632-.908-3.265-.605-.632-1.387-.949-2.345-.949a3.96 3.96 0 0 0-1.967.532c-.63.329-1.147.873-1.551 1.632-.378.76-.567 1.746-.567 2.961v10.136h-5.22Z" fill="url(#n)"/><path d="M195.61 39.793c0-1.063-.29-1.898-.87-2.505-.555-.633-1.324-.95-2.308-.95-.958 0-1.777.241-2.458.722-.681.48-1.173 1.29-1.476 2.43l-4.387-1.33c.403-1.695 1.324-3.049 2.761-4.061s3.379-1.519 5.825-1.519c1.664 0 3.102.266 4.312.798 1.211.506 2.144 1.278 2.799 2.315.681 1.038 1.022 2.329 1.022 3.872v7.707c0 .986.441 1.48 1.324 1.48.201 0 .403-.013.605-.038.227-.025.416-.063.567-.114l-.302 3.189a4.015 4.015 0 0 1-1.06.342c-.403.075-.87.114-1.399.114-.857 0-1.639-.14-2.345-.418a3.741 3.741 0 0 1-1.627-1.367c-.378-.632-.567-1.43-.567-2.391v-.304l.718-.152c-.1 1.038-.479 1.91-1.134 2.62a6.148 6.148 0 0 1-2.421 1.594 9.253 9.253 0 0 1-3.026.493c-1.816 0-3.304-.443-4.464-1.328-1.134-.886-1.702-2.177-1.702-3.872 0-1.342.416-2.468 1.248-3.379.833-.911 2.106-1.544 3.821-1.898l7.111-1.518v3.074l-4.35.911c-.857.178-1.513.443-1.967.798-.454.354-.681.873-.681 1.556 0 .658.227 1.164.681 1.519.479.354 1.085.531 1.816.531a5.75 5.75 0 0 0 1.475-.19c.479-.152.895-.38 1.248-.683a3.31 3.31 0 0 0 .87-1.177c.227-.48.341-1.05.341-1.708v-5.163Z" fill="url(#o)"/><path d="M165.902 52.32c-1.236 0-2.346-.227-3.329-.683-.984-.455-1.765-1.177-2.345-2.164-.555-.987-.832-2.29-.832-3.91V32.96h5.22v11.35c0 1.316.252 2.303.756 2.962.53.632 1.387.949 2.572.949.53 0 1.034-.102 1.513-.304a3.403 3.403 0 0 0 1.249-.911c.378-.405.668-.924.87-1.557.201-.632.302-1.366.302-2.201V32.96h5.22v18.98h-4.653l-.151-3.416a6.985 6.985 0 0 1-1.551 2.126 5.957 5.957 0 0 1-2.118 1.253c-.807.278-1.715.417-2.723.417Z" fill="url(#p)"/><path d="M146.358 59.533c-1.488 0-2.825-.266-4.01-.797-1.16-.532-2.08-1.354-2.761-2.468-.656-1.088-.984-2.467-.984-4.138 0-.43.038-.86.114-1.29.101-.43.265-.873.492-1.329l3.291-.57c-.177.431-.316.836-.417 1.215-.1.38-.151.722-.151 1.026 0 1.138.202 2.011.605 2.619a3.08 3.08 0 0 0 1.627 1.253c.681.253 1.425.38 2.232.38.983 0 1.828-.127 2.534-.38.731-.228 1.336-.544 1.816-.95l.907 3.873c-.605.506-1.412.885-2.42 1.138-.984.279-1.942.418-2.875.418Zm-5.825-33.026c2.42 0 4.501.518 6.241 1.556 1.765 1.038 3.114 2.518 4.047 4.442.959 1.923 1.438 4.226 1.438 6.908 0 2.683-.479 4.986-1.438 6.91-.933 1.923-2.282 3.403-4.047 4.44-1.74 1.038-3.821 1.557-6.241 1.557-2.421 0-4.514-.519-6.279-1.556-1.74-1.038-3.09-2.518-4.048-4.442-.958-1.923-1.437-4.226-1.437-6.909 0-2.682.479-4.985 1.437-6.908.958-1.924 2.308-3.404 4.048-4.442 1.765-1.038 3.858-1.556 6.279-1.556Zm0 4.29c-1.337 0-2.484.328-3.443.986-.933.658-1.651 1.633-2.156 2.923-.504 1.266-.756 2.835-.756 4.707 0 1.848.252 3.417.756 4.708.505 1.29 1.223 2.265 2.156 2.923.959.658 2.106.987 3.443.987 1.336 0 2.471-.33 3.404-.987.933-.658 1.652-1.633 2.156-2.923.504-1.291.757-2.86.757-4.708 0-1.872-.253-3.441-.757-4.707-.504-1.29-1.223-2.265-2.156-2.923-.933-.658-2.068-.987-3.404-.987Z" fill="url(#q)"/><defs><linearGradient id="a" x1="53.533" y1="30.316" x2="67.929" y2="80.454" gradientUnits="userSpaceOnUse"><stop stop-color="#EDB326"/><stop offset="1" stop-color="#F4B741"/></linearGradient><linearGradient id="c" x1="49.246" y1="-.058" x2="88.406" y2="66.735" gradientUnits="userSpaceOnUse"><stop stop-color="#EDB326"/><stop offset="1" stop-color="#F4B741"/></linearGradient><linearGradient id="d" x1="468.727" y1="26.886" x2="480.509" y2="45.055" gradientUnits="userSpaceOnUse"><stop stop-color="#EDB326"/><stop offset="1" stop-color="#F4B741"/></linearGradient><linearGradient id="e" x1="444.038" y1="26.886" x2="456.634" y2="42.595" gradientUnits="userSpaceOnUse"><stop stop-color="#EDB326"/><stop offset="1" stop-color="#F4B741"/></linearGradient><linearGradient id="f" x1="411.671" y1="32.58" x2="418.219" y2="50.074" gradientUnits="userSpaceOnUse"><stop stop-color="#EDB326"/><stop offset="1" stop-color="#F4B741"/></linearGradient><linearGradient id="g" x1="381.367" y1="32.58" x2="390.309" y2="47.586" gradientUnits="userSpaceOnUse"><stop stop-color="#EDB326"/><stop offset="1" stop-color="#F4B741"/></linearGradient><linearGradient id="h" x1="359.75" y1="27.152" x2="372.713" y2="40.107" gradientUnits="userSpaceOnUse"><stop stop-color="#EDB326"/><stop offset="1" stop-color="#F4B741"/></linearGradient><linearGradient id="i" x1="339.17" y1="32.58" x2="348.112" y2="47.586" gradientUnits="userSpaceOnUse"><stop stop-color="#EDB326"/><stop offset="1" stop-color="#F4B741"/></linearGradient><linearGradient id="j" x1="320.707" y1="24.684" x2="332.77" y2="31.362" gradientUnits="userSpaceOnUse"><stop stop-color="#EDB326"/><stop offset="1" stop-color="#F4B741"/></linearGradient><linearGradient id="k" x1="293.412" y1="32.58" x2="299.959" y2="50.074" gradientUnits="userSpaceOnUse"><stop stop-color="#EDB326"/><stop offset="1" stop-color="#F4B741"/></linearGradient><linearGradient id="l" x1="261.432" y1="32.96" x2="270.477" y2="47.132" gradientUnits="userSpaceOnUse"><stop stop-color="#EDB326"/><stop offset="1" stop-color="#F4B741"/></linearGradient><linearGradient id="m" x1="239.648" y1="27.152" x2="252.611" y2="40.107" gradientUnits="userSpaceOnUse"><stop stop-color="#EDB326"/><stop offset="1" stop-color="#F4B741"/></linearGradient><linearGradient id="n" x1="217.763" y1="32.58" x2="226.791" y2="46.787" gradientUnits="userSpaceOnUse"><stop stop-color="#EDB326"/><stop offset="1" stop-color="#F4B741"/></linearGradient><linearGradient id="o" x1="193.662" y1="32.58" x2="202.604" y2="47.586" gradientUnits="userSpaceOnUse"><stop stop-color="#EDB326"/><stop offset="1" stop-color="#F4B741"/></linearGradient><linearGradient id="p" x1="168.247" y1="32.96" x2="177.291" y2="47.132" gradientUnits="userSpaceOnUse"><stop stop-color="#EDB326"/><stop offset="1" stop-color="#F4B741"/></linearGradient><linearGradient id="q" x1="140.514" y1="26.507" x2="157.197" y2="46.841" gradientUnits="userSpaceOnUse"><stop stop-color="#EDB326"/><stop offset="1" stop-color="#F4B741"/></linearGradient></defs></svg>