<svg width="30" height="30" fill="none" xmlns="http://www.w3.org/2000/svg"><rect x=".25" y=".25" width="29.5" height="29.5" rx="14.75" stroke="#fff" stroke-opacity=".15" stroke-width=".5"/><path d="M15 9c-2.75 0-5 2.16-5 4.8 0 3.24 4.375 6.9 4.563 7.08.124.06.312.12.437.12s.313-.06.438-.12C15.624 20.7 20 17.04 20 13.8c0-2.64-2.25-4.8-5-4.8Zm0 10.62c-1.313-1.2-3.75-3.78-3.75-5.82 0-1.98 1.688-3.6 3.75-3.6 2.063 0 3.75 1.62 3.75 3.6s-2.438 4.62-3.75 5.82Zm0-8.22c-1.375 0-2.5 1.08-2.5 2.4 0 1.32 1.125 2.4 2.5 2.4s2.5-1.08 2.5-2.4c0-1.32-1.125-2.4-2.5-2.4Zm0 3.6c-.688 0-1.25-.54-1.25-1.2 0-.66.563-1.2 1.25-1.2.688 0 1.25.54 1.25 1.2 0 .66-.563 1.2-1.25 1.2Z" fill="#fff"/></svg>