<svg width="332" height="58" fill="none" xmlns="http://www.w3.org/2000/svg"><path d="m54.57 23.028 3.463 4.934-19.288 13.27-9.644-8.17-2.066-1.752-1.634 1.587L0 57.581l26.712-18.87 8.971 10.404 2.003 2.32 3.122-1.892 21.767-15.111 3.212 4.577L74 21.298l-19.43 1.73Z" fill="url(#a)"/><mask id="b" style="mask-type:luminance" maskUnits="userSpaceOnUse" x="4" y="0" width="59" height="46"><path d="m25.2 29.422 1.714-1.663 1.818 1.543L30.8 31.05l8.107 6.872L54.347 27.3l-1.916-2.761-2.63-3.731 4.538-.402 7.713-.677A30.005 30.005 0 0 0 55.38 9.345 29.965 29.965 0 0 0 32.94.44a29.943 29.943 0 0 0-21.72 10.546 30.01 30.01 0 0 0-6.907 23.156 30.023 30.023 0 0 0 4.015 11.674l15.239-14.803 1.634-1.591Z" fill="#fff"/></mask><g mask="url(#b)"><path d="M16.893 5.767c11.353-7.945 26.975-7.102 37.423 2.527-.209-.093-.4-.13-.57-.103-2.63.376-1.026 3.098.901 2.632.215.312.181.858.26 1.241-1.878-.237-2.75.12-3.783 1.591-3.302.2.086 2.122-1.642 2.604-3.088-1.242-4.031 2.948-.955 3.008 2.765-.03 1.226-2.516 5.37-3.362-.24 1.015 4.019 2.297 1.525 2.565-.451 1.504 2.75.082.864-1.467a1.691 1.691 0 0 1-1.342-1.703c1.931-.331 2.725 1.47 3.16 2.985.846 1.128 1.037.072 1.323-.752.267-.523 1.021-.466.897.207 2.669 3.67.3-1.493-2.445-5.541a29.809 29.809 0 0 1 4.902 9.67c-1.626.692-3.463-2.053-4.71-.684-.481 1.384-1.372-.026-2.255.034-3.49-.301.672-3.76-5.89-1.358-4.64-.568-2.63 1.96-5.392 3.81-3.756 1.686.5 2.197-1.589 3.615-.413 2.279 1.8 5.799 4.158 5.607 2.705-.857 4.46-.463 7 .192-.579 2.057.215 3.761 1.398 5.352 1.277 1.636-1.349 2.791-.376 4.427.635.339.807.88.781 1.58-.297 1.8 1.364 3.121 1.338 4.911l.227-.271a30.31 30.31 0 0 1-2.242 2.511c-11.704 11.717-30.679 11.716-42.382 0-9.44-9.45-11.266-23.635-5.478-34.918-.707 1.985-.775 4.034.182 6.061.056 1.09 1.342 2.705 2.176 2.419.105-1.328-1.432-2.11-1.225-3.506-.27-.834.8-.688.702.075.09 1.17.932 1.964 1.41 2.957.915 1.087-.312 2.949 2.114 3.23.778.692 2.671-.401 2.668.558.338.902 1.761.548 2.404 1.127 1.378 2.828 3.482 1.208 3.907 2.554.88 1.88-1.852 1.915-1.39 3.724-.71 1.587.35 2.667 1.435 3.7.695 1.806 1.773 1.904 3.163 3.07.973 1.39.136 3.693.406 5.4 1.292.708-.537 2.72 1.019 3.826.443.481.259 1.32 0 1.99.154 1.541 1.374 2.974 2.366 3.985.545.926 3.982 1.13 2.217-.214-1.386-.688.322-2.298-.996-2.715-.672-.203-.784-.62-.221-1.15.796-.666-.643-.693-.376-1.306.21-.376.639-.196.977-.24 1.585-.53 2.63-1.832 3.433-3.385.658-.493 1.17-1.001.872-1.987-1.266-3.035 3.347-1.023 3.35-3.79-.536-2.494 2.695-5.187 1.391-5.62-2.363-2.463-2.828-.963-5.695-2.12-1.307-.377-.263-2.769-1.792-3.01-2.209.771-2.03-2.463-3.758-1.952-.81.485-1.566.53-2.29-.289-2.473-1.963-2.54 1.925-5.846.812-.631-1.602.446-3.125-2.018-3.227-.124-.598 1-1.188.41-1.794-1.15 0-2.063 1.768-3.585 1.215-2.164-2.384 1.503-5.521 4.073-4.965 2.07-.312 1.33.482 2.54 1.569 1.183-.204-.459-2.46 2.355-3.2.905-.414.733-1.704 1.589-2.006 1.01-1.752 3.238-2.346 4.426-4.008.375-.053.751.375 1.153 0-1.416-.55-.901-1.881.376-1.13.751.88 1.439-.048 2.254-.056.24.508-.725.907-.226 1.332.515.245 1.605.92 1.958.285-.12-.477-.504-.642-.902-.82-1.254-.62.916-.785.58-1.688-2.424-2.18-.001-3.227-2.41-2.22-2.009.832.666-2.173-3.38-1.458-.984.752.27 2.527-1.27 2.771-1.165-.03-.853 1.697-1.909 1.566-.375-.162-.24-.512-.21-.813.1-1.215-1.274-.696-1.95-1.234-2.43-2.076 3.626-3.558 4.94-3.107.045-.267-.439-.67 0-.707 1.034-.256 1.718-1.417 2.972-1.128 2.081.264.849 1.128-.263 1.587-.811.58 1.961 1.072 2.442.752.049-.688.537-.752 1.127-.71.59.04.988-.978.188-1.02-.319-.1-.278-.398-.282-.676-.965-1.647-4.317-2.35-5.805-.861-.138.5.376 1.538-.83 1.335-1.28-.662.12-1.362.297-1.953-.751.057-1.604-.113-2.28.064-.579 1.02.207.467.376 1.046 0 .376-.402.58-.695.662-1.015.196-3.322 1.399-2.83-.583.94.124 2.157-.237 2.255-1.233-.68-.339-.782.431-1.203.616-1.623.485-1.788-1.662-3.452-1.17a2.293 2.293 0 0 0-1.687 1.084c.323.376 1.048 0 1.218.376.033.222-.237.876.07.752.452-.256 2.157.124 1.266.676-1.601.426-3.143-1.647-4.757-1.035Zm47.11 24.345c.04 4.46-.907 8.926-2.842 13.043a31.332 31.332 0 0 0 2.843-13.043ZM29.83 15.634a.283.283 0 0 0-.244.365v.01c0 .354.597.306.549-.059a.285.285 0 0 0-.076-.231.284.284 0 0 0-.229-.085Zm2.142-.135c.954.071-.173-.888-.26-.038v.011c-1.96-.124.21 1.46.26.027Zm18.954-3.055c-1.18-.583-1.308-4.02-2.593-1.56 2.972 1.395-1.502 2.452 1.59 2.618.597.12 1.987-.67 1.003-1.058Zm-2.987-1.143c-.436.222-.883.425-1.075.94-.916 2.29 3.528-.514 1.075-.94Zm-31.97-4.858A52.8 52.8 0 0 0 13.2 8.821a30.185 30.185 0 0 1 2.768-2.378Z" fill="url(#c)"/></g><path d="M331.757 36.19h-4.314l-3.582-6.091-3.529 6.091h-4.157l5.752-8.732-5.36-8.522h4.288l3.294 5.803 3.32-5.803h3.974l-5.385 8.418 5.699 8.837Z" fill="url(#d)"/><path d="M313.203 21.837h-8.968v4.393h7.111v2.928h-7.111v7.032h-3.634V18.936h12.602v2.901Z" fill="url(#e)"/><path d="M274.1 36.19V23.12h3.216l.13 2.43c.419-.888 1.011-1.559 1.778-2.012a4.892 4.892 0 0 1 2.536-.68c.941 0 1.787.218 2.536.654.767.435 1.325 1.098 1.673 1.987a4.002 4.002 0 0 1 1.072-1.464 4.69 4.69 0 0 1 1.569-.89 5.744 5.744 0 0 1 1.778-.287c.854 0 1.621.174 2.3.523.68.349 1.229.872 1.647 1.569.419.697.628 1.577.628 2.64v8.601h-3.608v-7.869c0-.941-.209-1.612-.628-2.013-.418-.418-.949-.627-1.594-.627-.523 0-.994.13-1.412.392-.418.261-.758.653-1.02 1.176-.244.506-.366 1.125-.366 1.857v7.084h-3.608v-7.869c0-.941-.209-1.612-.627-2.013-.418-.418-.941-.627-1.569-.627-.47 0-.923.122-1.359.366-.436.244-.793.627-1.072 1.15-.261.523-.392 1.203-.392 2.04v6.953H274.1Z" fill="url(#f)"/><path d="M264.932 27.824c0-.732-.2-1.307-.601-1.725-.383-.436-.915-.654-1.595-.654-.662 0-1.228.166-1.699.497-.471.331-.81.889-1.02 1.673l-3.032-.915c.279-1.168.915-2.1 1.908-2.797.994-.697 2.336-1.046 4.026-1.046 1.151 0 2.144.183 2.981.55.836.348 1.481.88 1.934 1.594.471.714.706 1.603.706 2.667v5.307c0 .68.305 1.02.915 1.02.14 0 .279-.01.419-.027.156-.017.287-.043.392-.078l-.209 2.196c-.21.104-.454.183-.732.235a5.305 5.305 0 0 1-.968.079 4.4 4.4 0 0 1-1.621-.288 2.584 2.584 0 0 1-1.124-.941c-.261-.436-.392-.985-.392-1.647v-.21l.497-.104c-.07.715-.331 1.316-.785 1.804a4.24 4.24 0 0 1-1.673 1.098 6.412 6.412 0 0 1-2.091.34c-1.255 0-2.284-.305-3.085-.915-.785-.61-1.177-1.5-1.177-2.667 0-.924.288-1.7.863-2.327s1.455-1.063 2.641-1.307l4.915-1.046v2.118l-3.007.628c-.593.122-1.046.305-1.359.549-.314.244-.471.6-.471 1.072 0 .453.157.801.471 1.045.331.244.749.366 1.254.366.349 0 .689-.043 1.02-.13.331-.105.619-.262.863-.471.261-.227.462-.497.601-.81.157-.332.235-.724.235-1.177v-3.556Z" fill="url(#g)"/><path d="M249.456 19.119v12.758c0 .662.157 1.141.47 1.438.314.296.75.444 1.308.444.418 0 .784-.06 1.098-.183a3.93 3.93 0 0 0 .862-.523l.523 2.353c-.418.314-.932.567-1.542.758a6.328 6.328 0 0 1-1.909.288c-1.324 0-2.388-.296-3.189-.889-.802-.61-1.203-1.638-1.203-3.085V20.112l3.582-.993Zm4.052 4v2.666h-9.935V23.12h9.935Z" fill="url(#h)"/><path d="M235.767 27.824c0-.732-.2-1.307-.601-1.725-.383-.436-.915-.654-1.595-.654-.662 0-1.228.166-1.699.497-.471.331-.81.889-1.02 1.673l-3.032-.915c.279-1.168.915-2.1 1.908-2.797.994-.697 2.336-1.046 4.026-1.046 1.151 0 2.144.183 2.981.55.836.348 1.481.88 1.934 1.594.471.714.706 1.603.706 2.667v5.307c0 .68.305 1.02.915 1.02.14 0 .279-.01.419-.027.157-.017.287-.043.392-.078l-.209 2.196a2.778 2.778 0 0 1-.732.235 5.305 5.305 0 0 1-.968.079 4.4 4.4 0 0 1-1.621-.288 2.584 2.584 0 0 1-1.124-.941c-.261-.436-.392-.985-.392-1.647v-.21l.497-.104c-.07.715-.331 1.316-.785 1.804a4.24 4.24 0 0 1-1.673 1.098 6.412 6.412 0 0 1-2.091.34c-1.255 0-2.283-.305-3.085-.915-.785-.61-1.177-1.5-1.177-2.667 0-.924.288-1.7.863-2.327s1.455-1.063 2.641-1.307l4.915-1.046v2.118l-3.007.628c-.592.122-1.046.305-1.359.549-.314.244-.471.6-.471 1.072 0 .453.157.801.471 1.045.331.244.749.366 1.255.366.348 0 .688-.043 1.019-.13.331-.105.619-.262.863-.471.261-.227.462-.497.601-.81.157-.332.235-.724.235-1.177v-3.556Z" fill="url(#i)"/><path d="M222.184 17.42v14.718c0 .558.087.976.261 1.255.174.279.505.418.993.418.262 0 .48-.017.654-.052a3.1 3.1 0 0 0 .654-.21l-.262 2.354c-.279.157-.645.287-1.098.392-.453.105-.88.157-1.281.157-1.342 0-2.266-.349-2.771-1.046-.506-.697-.758-1.656-.758-2.876V17.42h3.608Z" fill="url(#j)"/><path d="M192.364 36.19V23.12h3.216l.13 2.43c.419-.888 1.011-1.559 1.778-2.012a4.892 4.892 0 0 1 2.536-.68c.941 0 1.786.218 2.536.654.767.435 1.325 1.098 1.673 1.987a4.002 4.002 0 0 1 1.072-1.464 4.68 4.68 0 0 1 1.569-.89 5.742 5.742 0 0 1 1.777-.287c.854 0 1.621.174 2.301.523.68.349 1.229.872 1.647 1.569.418.697.628 1.577.628 2.64v8.601h-3.608v-7.869c0-.941-.209-1.612-.628-2.013-.418-.418-.95-.627-1.594-.627-.523 0-.994.13-1.412.392-.419.261-.758.653-1.02 1.176-.244.506-.366 1.125-.366 1.857v7.084h-3.608v-7.869c0-.941-.209-1.612-.627-2.013-.418-.418-.941-.627-1.569-.627-.47 0-.924.122-1.359.366-.436.244-.793.627-1.072 1.15-.262.523-.392 1.203-.392 2.04v6.953h-3.608Z" fill="url(#k)"/><path d="M179.071 36.452c-.854 0-1.621-.157-2.301-.47a3.609 3.609 0 0 1-1.62-1.49c-.384-.68-.576-1.578-.576-2.694v-8.68h3.608v7.818c0 .906.175 1.586.523 2.039.366.435.959.653 1.778.653.366 0 .714-.07 1.046-.209.331-.14.618-.348.862-.627.262-.28.462-.636.602-1.072.139-.436.209-.941.209-1.517V23.12h3.608V36.19h-3.216l-.105-2.354a4.818 4.818 0 0 1-1.071 1.465 4.131 4.131 0 0 1-1.465.862c-.557.192-1.185.288-1.882.288Z" fill="url(#l)"/><path d="M166.446 19.119v12.758c0 .662.157 1.141.47 1.438.314.296.75.444 1.308.444.418 0 .784-.06 1.098-.183a3.93 3.93 0 0 0 .862-.523l.523 2.353c-.418.314-.932.567-1.542.758a6.328 6.328 0 0 1-1.909.288c-1.324 0-2.387-.296-3.189-.889-.802-.61-1.203-1.638-1.203-3.085V20.112l3.582-.993Zm4.052 4v2.666h-9.934V23.12h9.934Z" fill="url(#m)"/><path d="M144.365 36.19V23.12h3.216l.209 4-.418-.419c.296-1.272.863-2.23 1.699-2.876.837-.644 1.848-.967 3.033-.967.889 0 1.673.183 2.353.55.68.348 1.211.87 1.595 1.568.401.697.601 1.568.601 2.614v8.601h-3.608v-7.607c0-1.064-.209-1.813-.627-2.249-.419-.436-.959-.653-1.621-.653-.471 0-.924.122-1.36.366-.435.226-.793.601-1.072 1.124-.261.523-.392 1.203-.392 2.04v6.98h-3.608Z" fill="url(#n)"/><path d="M135.198 27.824c0-.732-.201-1.307-.601-1.725-.384-.436-.915-.654-1.595-.654-.662 0-1.229.166-1.7.497-.47.331-.81.889-1.019 1.673l-3.033-.915c.279-1.168.915-2.1 1.909-2.797.993-.697 2.335-1.046 4.026-1.046 1.15 0 2.144.183 2.98.55.837.348 1.482.88 1.935 1.594.47.714.706 1.603.706 2.667v5.307c0 .68.305 1.02.915 1.02.139 0 .279-.01.418-.027.157-.017.288-.043.392-.078l-.209 2.196a2.778 2.778 0 0 1-.732.235 5.293 5.293 0 0 1-.967.079 4.397 4.397 0 0 1-1.621-.288 2.573 2.573 0 0 1-1.124-.941c-.262-.436-.393-.985-.393-1.647v-.21l.497-.104c-.07.715-.331 1.316-.784 1.804a4.248 4.248 0 0 1-1.673 1.098c-.663.227-1.36.34-2.092.34-1.255 0-2.283-.305-3.085-.915-.784-.61-1.176-1.5-1.176-2.667 0-.924.287-1.7.862-2.327.576-.627 1.456-1.063 2.641-1.307l4.915-1.046v2.118l-3.006.628c-.593.122-1.046.305-1.36.549-.314.244-.471.6-.471 1.072 0 .453.157.801.471 1.045.331.244.749.366 1.255.366.349 0 .688-.043 1.02-.13.331-.105.618-.262.862-.471.262-.227.462-.497.602-.81.156-.332.235-.724.235-1.177v-3.556Z" fill="url(#o)"/><path d="M114.665 36.452c-.854 0-1.621-.157-2.301-.47-.68-.314-1.22-.811-1.621-1.49-.383-.68-.575-1.578-.575-2.694v-8.68h3.608v7.818c0 .906.174 1.586.523 2.039.366.435.958.653 1.778.653.366 0 .714-.07 1.045-.209.331-.14.619-.348.863-.627.261-.28.462-.636.601-1.072.14-.436.21-.941.21-1.517V23.12h3.607V36.19h-3.215l-.105-2.354a4.82 4.82 0 0 1-1.072 1.465 4.118 4.118 0 0 1-1.464.862c-.558.192-1.185.288-1.882.288Z" fill="url(#p)"/><path d="M101.157 41.42c-1.028 0-1.952-.184-2.771-.55a4.287 4.287 0 0 1-1.909-1.7c-.453-.749-.68-1.699-.68-2.849 0-.296.026-.592.079-.889.07-.296.183-.601.34-.915l2.274-.392a6.84 6.84 0 0 0-.287.837 2.77 2.77 0 0 0-.105.706c0 .784.14 1.385.418 1.803.28.419.654.706 1.124.863.471.174.985.262 1.543.262.68 0 1.264-.087 1.752-.262.505-.157.923-.375 1.255-.653l.627 2.666c-.418.349-.976.61-1.673.785a7.301 7.301 0 0 1-1.987.287Zm-4.026-22.746c1.673 0 3.111.357 4.313 1.072 1.22.715 2.153 1.734 2.798 3.059.662 1.325.993 2.91.993 4.758 0 1.848-.331 3.434-.993 4.758-.645 1.325-1.578 2.344-2.798 3.059-1.202.715-2.64 1.072-4.313 1.072-1.674 0-3.12-.357-4.34-1.072-1.203-.715-2.135-1.734-2.797-3.059-.663-1.324-.994-2.91-.994-4.758 0-1.848.331-3.433.993-4.758.663-1.325 1.595-2.344 2.798-3.059 1.22-.715 2.666-1.072 4.34-1.072Zm0 2.954c-.924 0-1.717.227-2.38.68-.644.453-1.141 1.124-1.49 2.013-.348.872-.522 1.952-.522 3.242 0 1.272.174 2.353.522 3.242.349.889.846 1.56 1.49 2.013.663.453 1.456.68 2.38.68.924 0 1.708-.227 2.353-.68.645-.453 1.141-1.124 1.49-2.013.348-.889.523-1.97.523-3.242 0-1.29-.175-2.37-.523-3.242-.349-.889-.845-1.56-1.49-2.013-.645-.453-1.43-.68-2.353-.68Z" fill="url(#q)"/><defs><linearGradient id="a" x1="37" y1="21.298" x2="46.885" y2="55.846" gradientUnits="userSpaceOnUse"><stop stop-color="#EDB326"/><stop offset="1" stop-color="#F4B741"/></linearGradient><linearGradient id="c" x1="34.037" y1=".38" x2="60.959" y2="46.464" gradientUnits="userSpaceOnUse"><stop stop-color="#EDB326"/><stop offset="1" stop-color="#F4B741"/></linearGradient><linearGradient id="d" x1="323.966" y1="18.936" x2="332.069" y2="31.475" gradientUnits="userSpaceOnUse"><stop stop-color="#EDB326"/><stop offset="1" stop-color="#F4B741"/></linearGradient><linearGradient id="e" x1="306.902" y1="18.936" x2="315.57" y2="29.784" gradientUnits="userSpaceOnUse"><stop stop-color="#EDB326"/><stop offset="1" stop-color="#F4B741"/></linearGradient><linearGradient id="f" x1="284.531" y1="22.857" x2="289.028" y2="34.915" gradientUnits="userSpaceOnUse"><stop stop-color="#EDB326"/><stop offset="1" stop-color="#F4B741"/></linearGradient><linearGradient id="g" x1="263.586" y1="22.857" x2="269.734" y2="33.211" gradientUnits="userSpaceOnUse"><stop stop-color="#EDB326"/><stop offset="1" stop-color="#F4B741"/></linearGradient><linearGradient id="h" x1="248.645" y1="19.119" x2="257.573" y2="28.072" gradientUnits="userSpaceOnUse"><stop stop-color="#EDB326"/><stop offset="1" stop-color="#F4B741"/></linearGradient><linearGradient id="i" x1="234.421" y1="22.857" x2="240.569" y2="33.211" gradientUnits="userSpaceOnUse"><stop stop-color="#EDB326"/><stop offset="1" stop-color="#F4B741"/></linearGradient><linearGradient id="j" x1="221.661" y1="17.419" x2="229.984" y2="22.043" gradientUnits="userSpaceOnUse"><stop stop-color="#EDB326"/><stop offset="1" stop-color="#F4B741"/></linearGradient><linearGradient id="k" x1="202.795" y1="22.857" x2="207.292" y2="34.915" gradientUnits="userSpaceOnUse"><stop stop-color="#EDB326"/><stop offset="1" stop-color="#F4B741"/></linearGradient><linearGradient id="l" x1="180.692" y1="23.119" x2="186.911" y2="32.899" gradientUnits="userSpaceOnUse"><stop stop-color="#EDB326"/><stop offset="1" stop-color="#F4B741"/></linearGradient><linearGradient id="m" x1="165.635" y1="19.119" x2="174.563" y2="28.072" gradientUnits="userSpaceOnUse"><stop stop-color="#EDB326"/><stop offset="1" stop-color="#F4B741"/></linearGradient><linearGradient id="n" x1="150.509" y1="22.857" x2="156.717" y2="32.661" gradientUnits="userSpaceOnUse"><stop stop-color="#EDB326"/><stop offset="1" stop-color="#F4B741"/></linearGradient><linearGradient id="o" x1="133.851" y1="22.857" x2="140" y2="33.211" gradientUnits="userSpaceOnUse"><stop stop-color="#EDB326"/><stop offset="1" stop-color="#F4B741"/></linearGradient><linearGradient id="p" x1="116.286" y1="23.119" x2="122.505" y2="32.899" gradientUnits="userSpaceOnUse"><stop stop-color="#EDB326"/><stop offset="1" stop-color="#F4B741"/></linearGradient><linearGradient id="q" x1="97.118" y1="18.674" x2="108.599" y2="32.719" gradientUnits="userSpaceOnUse"><stop stop-color="#EDB326"/><stop offset="1" stop-color="#F4B741"/></linearGradient></defs></svg>