<svg width="246" height="188" fill="none" xmlns="http://www.w3.org/2000/svg"><g clip-path="url(#a)"><path d="M0 37.8h245.303M61.002 187.6V.6M122.204 187.6V.6M183.405 187.6V.6M0 75.2h245.303M0 112.6h245.303M0 150h245.303" stroke="#434343" stroke-width=".5"/><path d="M27.366 185.1h-7.463v2h7.463v-2ZM37.318 169.1h-7.464v16h7.464v-16ZM46.274 157.1h-5.97v12h5.97v-12ZM56.723 137.1H49.26v20h7.463v-20ZM66.675 137.1H59.21v-1.5h7.464v1.5ZM77.124 135.6H69.66v-21h7.464v21ZM86.578 114.6h-6.966v-23h6.966v23ZM96.032 91.6h-6.469V66.1h6.469v25.5ZM106.481 66.1h-7.464v-9h7.464v9Z" fill="#2DBFA6"/><path d="M102.998 75.6h-.498V.6h.498v75ZM132.354 56.1h-.497v-17h.497v17ZM192.063 110.6h-.497v-17h.497v17Z" fill="#2DBFA6"/><path d="M115.935 65.1h-6.966v-4.5h6.966v4.5Z" fill="#FD6A76"/><path d="M125.388 60.6h-5.971v-4.5h5.971v4.5ZM135.837 56.1h-7.463v-4.5h7.463v4.5ZM145.789 42.1h-7.464v9.5h7.464v-9.5Z" fill="#2DBFA6"/><path d="M155.243 43.6h-6.469v9.5h6.469v-9.5ZM165.194 53.1h-6.966v14.5h6.966V53.1ZM175.146 67.6h-7.464v14.5h7.464V67.6ZM185.595 82.1h-7.464v17h7.464v-17Z" fill="#FD6A76"/><path d="M195.546.6h-7.463v98.5h7.463V.6Z" fill="#2DBFA6"/><path d="M204.502 1.6h-5.971v5.5h5.971V1.6Z" fill="#FD6A76"/><path d="M214.952 5.6h-7.464v1.5h7.464V5.6ZM224.903 5.6h-7.464v1.5h7.464V5.6Z" fill="#2DBFA6"/></g><defs><clipPath id="a"><path fill="#fff" d="M0 0h246v188H0z"/></clipPath></defs></svg>