<svg width="206" height="166" fill="none" xmlns="http://www.w3.org/2000/svg"><rect x="88.701" y="116.642" width="117.049" height="49.099" rx="9.75" fill="#fff" fill-opacity=".2" stroke="#949494" stroke-width=".5"/><path d="M111.981 139.405c.985-3.985 5.004-6.415 8.976-5.426l.019.004c3.962.998 6.372 5.024 5.389 9.001-.985 3.986-5.003 6.414-8.975 5.426-3.972-.988-6.394-5.019-5.409-9.005Zm6.566-1.729-.519-.116-1.123-.282-.216.872s.586.135.591.148c.23.028.398.233.38.465l-.38 1.526a.477.477 0 0 1 .083.028l-.086-.023-.53 2.14a.296.296 0 0 1-.372.193l-.297-.069-.296-.077-.403.929 1.058.263.579.15-.336 1.355.813.205.333-1.341c.219.06.435.116.647.167l-.33 1.346.813.202.336-1.353c1.389.263 2.429.158 2.869-1.101.354-1.013-.019-1.596-.748-1.977.532-.123.927-.465 1.04-1.199l.017-.181c.034-.875-.685-1.363-1.638-1.694l.334-1.341-.822-.204-.325 1.306a24.716 24.716 0 0 0-.65-.154l.324-1.32-.813-.204-.333 1.341Zm0 3.596c.551.139 2.315.411 2.053 1.468-.25 1.013-1.949.465-2.501.327l.448-1.795Zm.608-2.447c.452.112 1.929.326 1.691 1.287h.006c-.231.93-1.644.454-2.102.34l.405-1.627ZM131.054 146.297c.433.002.858-.109 1.236-.32a3.223 3.223 0 0 0 1.005-.842c.286-.366.51-.776.665-1.215.163-.453.246-.931.245-1.412a2.765 2.765 0 0 0-.301-1.41c-.199-.337-.569-.509-1.107-.509a3.46 3.46 0 0 0-.694.095c-.283.063-.545.2-.76.395l-1.227 5.148.197.038c.058.014.118.023.178.028.077.009.154.013.232.011l.331-.007Zm2.438-8.048a3.553 3.553 0 0 1 1.556.321c.424.202.796.499 1.088.867.3.38.521.817.649 1.284.14.516.209 1.048.206 1.583a6.447 6.447 0 0 1-1.792 4.458 6.178 6.178 0 0 1-1.952 1.352 5.945 5.945 0 0 1-2.436.507h-.593a9.132 9.132 0 0 1-.963-.084c-.39-.057-.777-.134-1.158-.232a5.61 5.61 0 0 1-1.158-.414l3.254-13.675 2.906-.465-1.158 4.854c.241-.11.491-.197.748-.263.264-.064.536-.096.808-.095l-.005.003v-.001ZM141.344 137.252a1.72 1.72 0 0 1-1.052-.346 1.236 1.236 0 0 1-.463-1.064 1.756 1.756 0 0 1 .16-.741 1.977 1.977 0 0 1 1.033-1.008c.234-.101.486-.153.74-.151a1.71 1.71 0 0 1 1.042.348c.321.256.495.654.464 1.064.002.257-.052.51-.158.744a1.989 1.989 0 0 1-1.03 1.006c-.234.1-.487.151-.741.148h.005Zm-1.35 11.104h-2.779l2.348-9.898h2.795l-2.365 9.898h.001ZM144.791 135.993l2.906-.45-.722 2.915h3.112l-.561 2.296h-3.086l-.825 3.452a4.113 4.113 0 0 0-.132.809 1.5 1.5 0 0 0 .095.65.808.808 0 0 0 .403.421c.262.116.548.169.834.153.293.001.585-.028.873-.086.289-.056.574-.134.852-.232l.208 2.147a10.32 10.32 0 0 1-1.22.355 6.89 6.89 0 0 1-1.556.151c-.864 0-1.531-.13-2.008-.386a2.237 2.237 0 0 1-1.014-1.055 3.367 3.367 0 0 1-.261-1.533c.031-.615.118-1.227.261-1.826l1.841-7.79v.009ZM149.984 144.403a6.943 6.943 0 0 1 .412-2.409 5.94 5.94 0 0 1 1.181-1.977 5.546 5.546 0 0 1 1.866-1.334 5.966 5.966 0 0 1 2.447-.49 6.444 6.444 0 0 1 1.51.161c.416.099.821.24 1.209.422l-.966 2.177a8.679 8.679 0 0 0-.778-.271 3.373 3.373 0 0 0-.984-.124 2.752 2.752 0 0 0-2.193.967c-.541.639-.813 1.499-.815 2.579a2.67 2.67 0 0 0 .412 1.552c.275.395.782.592 1.519.592.354.001.706-.038 1.052-.114.308-.065.609-.159.9-.281l.207 2.24c-.379.144-.766.267-1.158.367a6.411 6.411 0 0 1-1.519.158 5.146 5.146 0 0 1-1.987-.337 3.737 3.737 0 0 1-1.329-.913 3.446 3.446 0 0 1-.762-1.347 5.565 5.565 0 0 1-.231-1.627l.007.01v-.001ZM163.694 140.568a1.767 1.767 0 0 0-1.088.355 3.093 3.093 0 0 0-.785.904c-.22.372-.386.775-.491 1.195a5.103 5.103 0 0 0-.157 1.231 3.025 3.025 0 0 0 .299 1.468c.201.351.562.528 1.088.528.392.006.776-.12 1.088-.358.319-.247.586-.554.788-.904.217-.372.378-.775.479-1.194.101-.404.154-.818.157-1.234a3.002 3.002 0 0 0-.299-1.468c-.201-.349-.565-.525-1.088-.525l.009.002Zm-1.389 8.053a4.49 4.49 0 0 1-1.727-.303 3.178 3.178 0 0 1-1.209-.845 3.645 3.645 0 0 1-.722-1.29 5.233 5.233 0 0 1-.232-1.645 7.28 7.28 0 0 1 .364-2.258 6.415 6.415 0 0 1 1.069-2.023 5.752 5.752 0 0 1 1.744-1.478 4.791 4.791 0 0 1 2.362-.574 4.565 4.565 0 0 1 1.718.302c.464.181.88.466 1.215.834.325.377.57.816.721 1.29.165.533.243 1.089.231 1.647a7.523 7.523 0 0 1-.354 2.258 6.524 6.524 0 0 1-1.051 2.033 5.52 5.52 0 0 1-1.735 1.475 4.885 4.885 0 0 1-2.394.577ZM172.226 137.252a1.7 1.7 0 0 1-1.049-.346 1.234 1.234 0 0 1-.463-1.064 1.755 1.755 0 0 1 .159-.741c.1-.225.239-.43.412-.604.179-.169.386-.306.612-.404a1.84 1.84 0 0 1 .739-.151c.378-.004.748.119 1.051.348.321.256.494.654.463 1.064.001.257-.055.511-.162.744a1.966 1.966 0 0 1-1.028 1.006c-.232.099-.482.15-.734.148Zm-1.348 11.104H168.1l2.343-9.898h2.797l-2.362 9.898ZM175.242 138.909c.211-.06.445-.135.695-.216.25-.081.542-.156.863-.232.353-.076.71-.132 1.068-.17.445-.047.893-.07 1.341-.067 1.463 0 2.473.426 3.029 1.28.332.511.501 1.135.505 1.871v.053a6.862 6.862 0 0 1-.214 1.577l-1.276 5.343h-2.787l1.238-5.232c.074-.325.135-.641.179-.95a2.285 2.285 0 0 0 0-.808.969.969 0 0 0-.348-.565 1.343 1.343 0 0 0-.836-.216 5.53 5.53 0 0 0-1.104.114l-1.82 7.667h-2.804l2.271-9.449Z" fill="#fff"/><rect x="62.248" y=".911" width="117.049" height="49.099" rx="9.75" fill="#fff" fill-opacity=".2" stroke="#949494" stroke-width=".5"/><path fill-rule="evenodd" clip-rule="evenodd" d="M98.943 28.913c.439.195.918.224 1.261.224 1.013 0 1.78-.64 1.78-2.89 0-1.763-.63-2.332-1.548-2.332-.548 0-.945.153-1.493.458v4.54Zm.015-5.567c.41-.221 1.108-.514 1.848-.514 1.698 0 2.616 1.194 2.616 3.416 0 2.597-1.233 3.86-3.218 3.86-.726 0-1.85-.236-2.671-.681v-9.691l1.425-.347v3.957Zm-15.24-.364h.096l1.862 6.93h1.48l2.219-9.845h-1.603l-1.397 7.346h-.096l-1.903-7.346h-1.22l-1.78 7.346h-.096l-1.534-7.346h-1.533l2.219 9.845h1.478l1.808-6.93Zm10.738 2.74h-3.135c.15-1.389.794-2.04 1.63-2.04.739 0 1.437.582 1.505 2.04Zm1.096 3.666v-1.055c-.753.457-1.438.721-2.177.721-1.411 0-2.082-.736-2.082-2.402h4.465v-.514c0-2.262-1.055-3.388-2.767-3.388-2.054 0-3.108 1.528-3.108 3.64 0 2.193.945 3.637 3.245 3.637a4.78 4.78 0 0 0 2.424-.639Zm14.102-1.565h-.068l-3.068-7.762h-1.657v9.846h1.232v-6.97h.123l2.795 6.97h.876l2.794-7.138h.124v7.138h1.479V20.06h-1.699l-2.931 7.762Zm10.673-1.434c0-1.875-.753-2.666-1.684-2.666-.904 0-1.685.791-1.685 2.666 0 1.902.713 2.665 1.685 2.665.972 0 1.684-.763 1.684-2.665Zm-4.806 0c0-2.431 1.315-3.639 3.122-3.639 1.808 0 3.123 1.208 3.123 3.639 0 2.374-1.247 3.638-3.123 3.638-1.876 0-3.122-1.264-3.122-3.638Zm7.328-2.61c.616-.376 1.918-1.029 3.492-1.029 1.643 0 2.259.653 2.259 2.083v5.027h-1.424v-4.707c0-1.097-.533-1.291-1.232-1.291-.547 0-1.247.25-1.671.5v5.498h-1.424V23.78Zm11.901 1.942h-3.136c.152-1.387.795-2.04 1.63-2.04.74 0 1.439.583 1.506 2.04Zm1.096 3.667v-1.055c-.752.457-1.438.721-2.177.721-1.41 0-2.081-.736-2.081-2.402h4.465v-.514c0-2.262-1.055-3.388-2.768-3.388-2.054 0-3.108 1.528-3.108 3.64 0 2.193.945 3.637 3.245 3.637a4.78 4.78 0 0 0 2.424-.639Zm7.361-6.638h-1.465l-1.561 5.11h-.082l-1.753-5.11h-1.507l2.63 6.942c-.329 1.028-.904 1.779-1.836 1.779v1.137c1.575 0 2.41-1 3.095-2.916l2.479-6.942Z" fill="#fff"/><path d="M155.285 17.186c1.375 0 2.683.32 3.857.892.184.084.369.185.553.286l-.805.724-1.207-1.262-2.079 1.851-1.225-1.33-3.824 3.451 2.448 2.711-.955.842 2.415 2.71-.956.841 3.455 3.856 2.045-1.886 1.779 2.02c-.353.27-.739.54-1.157.775a8.74 8.74 0 0 1-4.328 1.144c-4.847 0-8.787-3.955-8.787-8.82-.017-4.832 3.924-8.805 8.771-8.805Zm-1.611 8.266 2.097-1.886 1.878 2.105-2.096 1.885-1.879-2.104Zm1.493 3.636 2.08-1.902 1.895 2.104-2.097 1.886-1.878-2.088Zm-2.984-7.222 2.095-1.886 1.879 2.105-2.097 1.885-1.877-2.104Zm3.839-1.01 1.56-1.414 1.409 1.565-1.56 1.431-1.409-1.582Zm2.785 6.481 1.559-1.414 1.409 1.582-1.56 1.415-1.408-1.583Zm1.375 3.182 1.56-1.414 1.407 1.566-1.559 1.43-1.408-1.582Zm.637-7.273 1.04-.943.939 1.045-1.04.942-.939-1.044Zm-1.342-3.114 1.04-.96.94 1.06-1.041.944-.939-1.044Zm2.667 6.229 1.039-.943.956 1.044-1.056.943-.939-1.044Zm-4.679-2.34 1.56-1.414 1.408 1.565-1.559 1.414-1.409-1.565Z" fill="#fff"/><rect x=".25" y="58.777" width="117.049" height="49.099" rx="9.75" fill="#fff" fill-opacity=".2" stroke="#949494" stroke-width=".5"/><path fill-rule="evenodd" clip-rule="evenodd" d="M47.53 90.65h-3.92l-2.939-11.543c-.14-.531-.435-1-.871-1.222-1.087-.556-2.286-.999-3.593-1.222v-.444h6.314c.872 0 1.525.668 1.634 1.443l1.525 8.326 3.918-9.769h3.81l-5.878 14.43Zm8.056 0h-3.701l3.048-14.431h3.702l-3.048 14.43Zm7.837-10.433c.11-.778.763-1.222 1.525-1.222 1.199-.112 2.504.112 3.593.666l.654-3.107a9.136 9.136 0 0 0-3.375-.668c-3.593 0-6.207 1.999-6.207 4.773 0 2.11 1.851 3.219 3.159 3.886 1.414.666 1.958 1.11 1.85 1.776 0 .999-1.09 1.443-2.177 1.443-1.307 0-2.615-.333-3.81-.889l-.654 3.11c1.307.553 2.72.776 4.028.776 4.029.11 6.532-1.887 6.532-4.884 0-3.775-5.118-3.996-5.118-5.66ZM81.498 90.65l-2.94-14.431h-3.157c-.653 0-1.307.444-1.525 1.11l-5.442 13.32h3.81l.76-2.108h4.683l.436 2.109h3.375Zm-5.553-10.545 1.088 5.439h-3.049l1.961-5.439Z" fill="#fff"/></svg>